<?xml version="1.0" encoding="UTF-8" standalone="no"?>
<svg
   xmlns:dc="http://purl.org/dc/elements/1.1/"
   xmlns:cc="http://creativecommons.org/ns#"
   xmlns:rdf="http://www.w3.org/1999/02/22-rdf-syntax-ns#"
   xmlns:svg="http://www.w3.org/2000/svg"
   xmlns="http://www.w3.org/2000/svg"
   xmlns:xlink="http://www.w3.org/1999/xlink"
   xmlns:sodipodi="http://sodipodi.sourceforge.net/DTD/sodipodi-0.dtd"
   xmlns:inkscape="http://www.inkscape.org/namespaces/inkscape"
   width="440.738"
   height="511.582"
   viewBox="0 0 116.612 135.356"
   version="1.1"
   id="svg499"
   sodipodi:docname="Seal of the City of Bekasi (1).svg"
   inkscape:version="1.0.1 (3bc2e813f5, 2020-09-07)">
  <metadata
     id="metadata503">
    <rdf:RDF>
      <cc:Work
         rdf:about="">
        <dc:format>image/svg+xml</dc:format>
        <dc:type
           rdf:resource="http://purl.org/dc/dcmitype/StillImage" />
      </cc:Work>
    </rdf:RDF>
  </metadata>
  <sodipodi:namedview
     pagecolor="#ffffff"
     bordercolor="#666666"
     borderopacity="1"
     objecttolerance="10"
     gridtolerance="10"
     guidetolerance="10"
     inkscape:pageopacity="0"
     inkscape:pageshadow="2"
     inkscape:window-width="1366"
     inkscape:window-height="705"
     id="namedview501"
     showgrid="false"
     inkscape:zoom="0.87949724"
     inkscape:cx="223.04954"
     inkscape:cy="206.2808"
     inkscape:window-x="-8"
     inkscape:window-y="-8"
     inkscape:window-maximized="1"
     inkscape:current-layer="svg499" />
  <style
     id="style2"><![CDATA[.B{stroke-width:.265}.C{fill:#ff0}.D{stroke:#949400}.E{fill:#ffffc3}.F{opacity:.999}.G{fill:#ffff6b}.H{fill:#fff}.I{fill-rule:evenodd}.J{fill:#d3d3d3}.K{fill:#f5f5f5}]]></style>
  <defs
     id="defs49">
    <linearGradient
       id="A"
       x1="0"
       y1="0"
       x2="116.612"
       y2="0"
       gradientUnits="userSpaceOnUse"
       spreadMethod="pad">
      <stop
         offset="0"
         stop-color="#a6a600"
         id="stop4" />
      <stop
         offset="1"
         stop-color="#ff0"
         id="stop6" />
    </linearGradient>
    <linearGradient
       id="B"
       x1="0"
       y1="0"
       x2="116.612"
       y2="0"
       gradientUnits="userSpaceOnUse"
       spreadMethod="pad">
      <stop
         offset="0"
         stop-color="#fff"
         id="stop9" />
      <stop
         offset="1"
         stop-color="#b9b9b9"
         id="stop11" />
    </linearGradient>
    <linearGradient
       xlink:href="#B"
       id="C"
       x1="138.47472"
       y1="193.68924"
       x2="135.02881"
       y2="198.29111"
       gradientTransform="scale(0.9774781,1.0230408)"
       gradientUnits="userSpaceOnUse" />
    <linearGradient
       id="D"
       x1="305.226"
       y1="775.83"
       x2="488.482"
       y2="775.83"
       xlink:href="#U">
      <stop
         offset="0"
         stop-color="#c9c9c9"
         id="stop15" />
      <stop
         offset=".502"
         stop-color="#fff"
         id="stop17" />
      <stop
         offset="1"
         stop-color="#c9c9c9"
         id="stop19" />
    </linearGradient>
    <linearGradient
       xlink:href="#B"
       id="E"
       x1="76.369995"
       y1="193.69316"
       x2="79.360451"
       y2="198.15456"
       gradientTransform="scale(0.9774781,1.0230408)"
       gradientUnits="userSpaceOnUse" />
    <radialGradient
       id="F"
       cx="105"
       cy="165.239"
       fx="105"
       fy="165.239"
       r="29.842"
       gradientTransform="matrix(1.5226679,0,0,1.8951379,-101.57421,-253.11859)"
       xlink:href="#U">
      <stop
         offset="0"
         stop-color="#00f66a"
         id="stop23" />
      <stop
         offset="1"
         stop-color="#00923f"
         stop-opacity=".995"
         id="stop25" />
    </radialGradient>
    <linearGradient
       xlink:href="#A"
       id="G"
       x1="311.65802"
       y1="104.97073"
       x2="314.04276"
       y2="104.97073"
       gradientTransform="scale(0.56958211,1.7556731)"
       gradientUnits="userSpaceOnUse" />
    <linearGradient
       xlink:href="#A"
       id="H"
       x1="311.9711"
       y1="105.04105"
       x2="313.87891"
       y2="105.04105"
       gradientTransform="matrix(0.56958211,0,0,1.7556731,12.565,0)"
       gradientUnits="userSpaceOnUse" />
    <linearGradient
       xlink:href="#A"
       id="I"
       x1="311.8548"
       y1="104.99886"
       x2="313.97937"
       y2="104.99886"
       gradientTransform="matrix(0.56958211,0,0,1.7556731,14.36,0)"
       gradientUnits="userSpaceOnUse" />
    <linearGradient
       xlink:href="#A"
       id="J"
       x1="312.12869"
       y1="104.92852"
       x2="313.8197"
       y2="104.92852"
       gradientTransform="matrix(0.56958211,0,0,1.7556731,16.155001,0)"
       gradientUnits="userSpaceOnUse" />
    <linearGradient
       id="K"
       x1="105"
       y1="202.473"
       x2="105"
       y2="245.521"
       xlink:href="#U"
       gradientTransform="translate(-46.694,-125.856)">
      <stop
         offset="0"
         stop-color="#0093dd"
         id="stop32" />
      <stop
         offset="1"
         stop-color="#00527a"
         id="stop34" />
    </linearGradient>
    <filter
       id="L"
       color-interpolation-filters="sRGB">
      <feGaussianBlur
         stdDeviation="5 5"
         id="feGaussianBlur37" />
    </filter>
    <path
       id="M"
       d="M122.104 202.473c.197 2.061-.514 4.575 1.752 5.602l.932 1.321-.721-1.461c.738-2.551-.97-3.819-1.963-5.461z" />
    <path
       id="N"
       d="M122.659 203.981c.416 1.007.82 2.012 1.041 2.986.155-1.593-.544-2.17-1.041-2.986z" />
    <path
       id="O"
       d="M128.577 152.937l-.262 1.211.411-1.185c2.124-1.332 2.316-3.408 1.408-5.906-.901.377-2.231 4.362-1.557 5.88z" />
    <path
       id="P"
       d="M130.058 148.459c.183 1.201.23 2.383-.876 3.4.331-.75.607-2.041.876-3.4z" />
    <path
       id="Q"
       d="M274 153.59c2.177-1.41 2.961-3.984 2.072-6.534-1.943 2.21-1.983 4.314-2.072 6.534z" />
    <path
       id="R"
       d="M217.19 198.876l-.892.719 1.09.421-.669.719 1.066.223-.57 1.165h1.214l-.372 1.115 1.041-.198-.223 1.214 1.041-.273-.173 1.313 1.041-.421.074 1.214.991-.669.099 1.437.743-.843.52 1.239.52-.966.57 1.289.446-.966.843 1.165.173-1.115 1.016.644-.198-.991 1.115.57-.397-1.066 1.239.595-.694-1.09 1.264.223-.867-.843 1.338-.099-1.165-1.016 1.264-.198-1.239-.644 1.289-.52-1.289-.694 1.363-.719-1.264-.322.966-.793-1.313-.322 1.066-1.016-1.462-.248.966-1.016-1.512-.05.743-.966h-1.313l.57-1.264-1.289.273.471-1.14-1.437.496.347-1.239-1.264.545.223-1.09-.892.719-.173-1.165-1.016 1.016-.173-1.264-.793 1.437-.644-1.041-.322 1.388-1.214-.843-.099 1.313-.942-.52.248 1.214-.991-.124.446 1.016-1.19.124.843.942-1.09.273.942.52-.991.719z" />
    <path
       id="S"
       d="M220.131 194.757c.306.772 1.33.171 1.473 1.112.218.47.361 1.256.94.645.711.275.519 1.546 1.029 2.152.074.394.234.374.531.29.173.609-.11 1.351.251 1.911.396.304 1.768.379.982 1.093-.738.438.947 1.265-.046 1.39.294.35.599.85.317 1.117.188.402.686 1.456 1.157 1.044-.336-.615.482-.629.609-.873-.174-.419-.242-1.198.406-.688.749.532-.34-.638-.093-1.026.476-.757-.799-1.041-.929-1.677.38-.697.626-1.434.487-2.257-.395-.484-.005-1.515-.73-1.715-.672-.334.025-1.621-.998-1.506-.678.122-.708-.397-.835-.868-.42-.061-1.523.262-1.251-.594-.374-.554-1.297.766-1.43-.238-.275-.534-.397.995-1.091.396-.359-.177-.375-.244-.403.089-.145-.019-.352.029-.375.202z" />
    <path
       id="T"
       d="M178.038 181.829h.359c.292 0 .527.248.527.557v3.787c0 .308-.235.557-.527.557h-.359c-.292 0-.527-.248-.527-.557v-3.787c0-.308.235-.557.527-.557z" />
    <linearGradient
       id="U"
       gradientUnits="userSpaceOnUse" />
    <linearGradient
       inkscape:collect="always"
       xlink:href="#A"
       id="linearGradient1538"
       x1="177.511"
       y1="184.279"
       x2="178.924"
       y2="184.279"
       gradientTransform="translate(1.795)" />
    <linearGradient
       inkscape:collect="always"
       xlink:href="#A"
       id="linearGradient1542"
       x1="177.511"
       y1="184.279"
       x2="178.924"
       y2="184.279"
       gradientTransform="translate(3.5899999)" />
    <linearGradient
       inkscape:collect="always"
       xlink:href="#A"
       id="linearGradient1546"
       x1="177.511"
       y1="184.279"
       x2="178.924"
       y2="184.279"
       gradientTransform="translate(7.1799998)" />
    <linearGradient
       inkscape:collect="always"
       xlink:href="#A"
       id="linearGradient1550"
       x1="177.511"
       y1="184.279"
       x2="178.924"
       y2="184.279"
       gradientTransform="translate(5.3850002)" />
    <linearGradient
       inkscape:collect="always"
       xlink:href="#A"
       id="linearGradient1554"
       x1="177.511"
       y1="184.279"
       x2="178.924"
       y2="184.279"
       gradientTransform="translate(8.9750004)" />
    <linearGradient
       inkscape:collect="always"
       xlink:href="#A"
       id="linearGradient1558"
       x1="177.511"
       y1="184.279"
       x2="178.924"
       y2="184.279"
       gradientTransform="translate(10.77)" />
  </defs>
  <g
     id="g1823">
    <path
       d="M 27.612,3.478 H 58.306 89 c 0.475,3.838 2.549,6.789 5.377,8.589 2.771,1.763 6.115,2.473 9.368,2.671 v 58.42 c 0,7.951 -3.66,18.945 -11.179,27.798 -7.519,8.853 -18.787,15.631 -34.26,15.631 -15.473,0 -26.741,-6.778 -34.26,-15.631 C 16.527,92.103 12.867,81.11 12.867,73.158 v -58.42 c 3.253,-0.198 6.597,-0.907 9.368,-2.671 2.828,-1.8 4.902,-4.75 5.377,-8.589 z"
       fill="url(#F)"
       id="path67"
       style="fill:url(#F);" />
    <g
       id="g1817">
      <path
         d="m 13.084,76.617 c 0.874,7.492 4.481,16.709 10.962,24.339 7.519,8.853 18.787,15.631 34.26,15.631 15.473,0 26.741,-6.778 34.261,-15.631 6.481,-7.63 10.087,-16.847 10.962,-24.339 z"
         fill="url(#K)"
         id="path69"
         style="fill:url(#K);" />
      <path
         d="m 25.144,96.193 -2.962,2.418 1.019,1.317 1.897,-1.548 c 1.723,1.596 3.485,2.397 5.187,2.265 1.702,-0.132 3.221,-1.028 4.67,-2.147 2.218,2.113 4.129,2.957 5.768,2.664 1.566,-0.28 2.677,-1.3 3.709,-2.219 1.953,1.459 3.833,2.183 5.52,2.115 1.564,-0.063 2.862,-0.774 3.949,-1.693 0.381,0.395 0.73,0.804 1.268,1.16 0.76,0.503 1.763,0.84 3.129,0.854 h 0.01 0.008 c 1.366,-0.013 2.371,-0.35 3.131,-0.854 0.538,-0.357 0.887,-0.765 1.268,-1.16 1.087,0.919 2.385,1.631 3.949,1.693 1.686,0.068 3.566,-0.656 5.52,-2.115 1.031,0.919 2.142,1.939 3.707,2.219 1.639,0.293 3.549,-0.552 5.768,-2.664 1.45,1.119 2.973,2.015 4.672,2.147 1.699,0.132 3.464,-0.67 5.187,-2.265 l 1.895,1.549 1.019,-1.317 -2.961,-2.419 -0.532,0.57 c -1.696,1.815 -3.112,2.329 -4.48,2.223 -1.368,-0.106 -2.81,-0.92 -4.295,-2.148 l -0.596,-0.492 -0.535,0.558 c -2.308,2.405 -3.746,2.819 -4.85,2.622 -1.104,-0.197 -2.159,-1.18 -3.373,-2.229 l -0.535,-0.463 -0.541,0.453 c -1.958,1.633 -3.625,2.165 -5.004,2.109 -1.379,-0.056 -2.539,-0.7 -3.478,-1.676 l -0.586,-0.607 -0.599,0.592 c -0.601,0.594 -1.033,1.1 -1.539,1.436 -0.506,0.336 -1.107,0.562 -2.221,0.574 -1.111,-0.013 -1.714,-0.24 -2.218,-0.574 -0.504,-0.334 -0.938,-0.842 -1.539,-1.436 l -0.599,-0.592 -0.584,0.607 c -0.939,0.976 -2.1,1.621 -3.478,1.676 -1.378,0.055 -3.046,-0.477 -5.004,-2.109 l -0.543,-0.453 -0.535,0.463 c -1.214,1.048 -2.269,2.031 -3.373,2.229 -1.104,0.198 -2.542,-0.216 -4.85,-2.622 l -0.535,-0.558 -0.596,0.492 c -1.485,1.228 -2.925,2.042 -4.293,2.148 -1.368,0.106 -2.784,-0.408 -4.48,-2.223 z m 9.902,9.471 -0.596,0.492 c -1.006,0.832 -1.992,1.468 -2.95,1.828 l 1.542,1.102 c 0.656,-0.355 1.292,-0.789 1.914,-1.268 2.218,2.113 4.129,2.957 5.768,2.664 1.566,-0.28 2.677,-1.3 3.709,-2.219 1.953,1.458 3.832,2.183 5.517,2.115 1.564,-0.063 2.862,-0.773 3.95,-1.693 0.381,0.396 0.729,0.803 1.267,1.16 0.76,0.503 1.765,0.84 3.131,0.853 h 0.008 0.01 c 1.366,-0.013 2.369,-0.35 3.129,-0.853 0.538,-0.357 0.887,-0.765 1.268,-1.16 1.087,0.92 2.385,1.63 3.949,1.693 1.686,0.067 3.566,-0.659 5.52,-2.117 1.032,0.919 2.143,1.941 3.709,2.221 1.639,0.293 3.549,-0.552 5.768,-2.664 a 14.3,14.3 0 0 0 1.913,1.268 l 1.541,-1.102 c -0.957,-0.361 -1.941,-0.996 -2.948,-1.828 l -0.596,-0.492 -0.535,0.559 c -2.308,2.405 -3.746,2.818 -4.85,2.621 -1.104,-0.197 -2.159,-1.183 -3.373,-2.231 l -0.535,-0.46 -0.543,0.453 c -1.958,1.633 -3.625,2.165 -5.004,2.109 -1.379,-0.056 -2.539,-0.7 -3.478,-1.676 l -0.584,-0.607 -0.599,0.592 c -0.601,0.594 -1.033,1.1 -1.539,1.436 -0.506,0.336 -1.107,0.561 -2.218,0.574 -1.113,-0.012 -1.716,-0.239 -2.221,-0.574 -0.505,-0.335 -0.938,-0.842 -1.539,-1.436 l -0.599,-0.592 -0.586,0.607 c -0.939,0.976 -2.1,1.621 -3.478,1.676 -1.378,0.055 -3.046,-0.477 -5.004,-2.109 l -0.541,-0.453 -0.535,0.46 c -1.214,1.048 -2.269,2.034 -3.373,2.231 -1.104,0.197 -2.542,-0.216 -4.85,-2.621 z"
         fill="#cfefff"
         id="path123" />
    </g>
  </g>
  <g
     id="g1797">
    <g
       transform="matrix(1.522668,0,0,1.522668,-101.57891,-191.57193)"
       id="g65">
      <path
         d="m 134.947,190.073 -1.734,2.308 -4.928,6.557 -2.045,-0.874 -0.619,0.5 c -5.236,4.226 -12.14,7.138 -20.619,7.138 -8.479,0 -15.38,-2.911 -20.616,-7.134 l -0.619,-0.499 -2.044,0.873 -6.662,-8.864 -1.478,6.772 -6.588,0.095 7.529,8.886 0.09,0.074 c 1.14,0.945 2.667,1.099 3.87,0.173 0.182,-0.14 0.336,-0.326 0.473,-0.529 6.7,5.317 15.614,9.027 26.045,9.027 10.431,0 19.35,-3.712 26.051,-9.031 0.137,0.203 0.291,0.388 0.472,0.528 1.203,0.927 2.73,0.772 3.87,-0.173 l 0.09,-0.074 7.529,-8.886 -6.588,-0.095 z"
         fill="#ff0000"
         stroke="#630000"
         class="B"
         id="path51" />
      <g
         stroke="#363636"
         id="g61">
        <path
           d="m 477.924,754.365 c -20.595,16.62 -47.874,28.086 -81.07,28.086 -33.186,0 -60.462,-11.459 -81.057,-28.07 l -23.955,10.23 c 25.289,23.809 61.499,41.381 105.012,41.381 43.522,0 79.74,-17.579 105.029,-41.396 z"
           transform="scale(0.26458333)"
           fill="url(#D)"
           stroke-width="2.1"
           id="path53"
           style="fill:url(#D);" />
        <g
           stroke-width="0.556"
           id="g59">
          <path
             d="m 132.79,202.299 -4.071,-1.739 5.551,-7.385 1.086,4.977 4.837,0.07 -5.643,6.659 c -1.289,1.068 -4.042,0.174 -1.76,-2.582 z"
             fill="url(#C)"
             id="path55"
             style="fill:url(#C);fill-opacity:1;" />
          <path
             d="m 77.216,202.303 4.071,-1.739 -5.551,-7.385 -1.086,4.977 -4.837,0.07 5.643,6.659 c 1.289,1.068 4.042,0.174 1.76,-2.582 z"
             fill="url(#E)"
             id="path57"
             style="fill:url(#E);fill-opacity:1;" />
        </g>
      </g>
      <path
         d="m 82.553,205.271 1.906,-2.977 0.601,0.385 -0.846,1.322 2.061,-0.545 0.808,0.517 -1.864,0.442 0.018,2.575 -0.778,-0.498 0.076,-1.921 -0.806,0.186 -0.576,0.9 z m 4.566,0.769 q 0.234,-0.487 0.539,-0.747 0.226,-0.191 0.506,-0.295 0.282,-0.103 0.551,-0.088 0.358,0.017 0.747,0.204 0.704,0.339 0.916,0.978 0.214,0.641 -0.16,1.419 -0.371,0.772 -1.001,1.007 -0.628,0.233 -1.33,-0.105 -0.711,-0.342 -0.922,-0.976 -0.21,-0.636 0.155,-1.397 z m 0.673,0.297 q -0.26,0.541 -0.145,0.942 0.116,0.398 0.501,0.583 0.385,0.185 0.763,0.027 0.382,-0.159 0.648,-0.713 0.263,-0.548 0.152,-0.933 -0.109,-0.384 -0.507,-0.576 -0.398,-0.191 -0.773,-0.035 -0.374,0.155 -0.638,0.704 z m 3.922,3.607 0.973,-2.771 -0.99,-0.348 0.198,-0.564 2.651,0.931 -0.198,0.564 -0.988,-0.347 -0.973,2.771 z m 5.875,1.63 -0.756,-0.179 -0.115,-0.853 -1.375,-0.326 -0.469,0.714 -0.737,-0.175 2.155,-3.122 0.734,0.174 z m -0.956,-1.664 -0.171,-1.389 -0.767,1.166 z m 4.612,2.145 0.229,-3.528 1.143,0.074 q 0.65,0.042 0.844,0.108 0.298,0.099 0.485,0.38 0.187,0.278 0.16,0.699 -0.021,0.325 -0.153,0.539 -0.132,0.214 -0.323,0.329 -0.189,0.113 -0.379,0.142 -0.258,0.034 -0.742,0.003 l -0.464,-0.03 -0.087,1.331 z m 0.903,-2.885 -0.065,1.001 0.39,0.025 q 0.421,0.027 0.567,-0.019 0.146,-0.046 0.233,-0.159 0.09,-0.113 0.1,-0.269 0.013,-0.193 -0.093,-0.325 -0.105,-0.132 -0.276,-0.175 -0.126,-0.032 -0.511,-0.057 z m 6.266,2.947 -0.776,0.028 -0.337,-0.792 -1.412,0.05 -0.263,0.813 -0.757,0.027 1.25,-3.582 0.754,-0.027 z m -1.363,-1.351 -0.534,-1.294 -0.43,1.328 z m 3.216,1.107 -0.408,-2.909 -1.039,0.146 -0.083,-0.592 2.782,-0.39 0.083,0.592 -1.036,0.145 0.408,2.909 z m 3.238,-0.538 -0.876,-3.425 1.456,-0.372 q 0.549,-0.14 0.821,-0.11 0.273,0.027 0.483,0.225 0.21,0.198 0.288,0.501 0.099,0.386 -0.064,0.696 -0.163,0.308 -0.597,0.489 0.258,0.073 0.443,0.193 0.187,0.119 0.537,0.455 l 0.589,0.561 -0.827,0.212 -0.691,-0.617 q -0.369,-0.331 -0.493,-0.409 -0.125,-0.08 -0.244,-0.089 -0.12,-0.012 -0.358,0.049 l -0.14,0.036 0.366,1.43 z m 0.186,-2.153 0.512,-0.131 q 0.498,-0.127 0.611,-0.201 0.113,-0.074 0.157,-0.194 0.044,-0.121 0.004,-0.275 -0.044,-0.173 -0.165,-0.254 -0.119,-0.084 -0.294,-0.069 -0.087,0.01 -0.508,0.117 l -0.54,0.138 z m 4.237,0.889 -1.183,-3.332 0.673,-0.239 1.183,3.332 z m 1.436,-2.367 q -0.228,-0.49 -0.236,-0.89 -0.005,-0.296 0.093,-0.578 0.1,-0.283 0.281,-0.482 0.241,-0.266 0.632,-0.448 0.708,-0.33 1.337,-0.087 0.631,0.241 0.995,1.024 0.361,0.776 0.143,1.412 -0.219,0.634 -0.925,0.962 -0.715,0.333 -1.339,0.094 -0.625,-0.241 -0.981,-1.006 z m 0.657,-0.332 q 0.253,0.544 0.636,0.71 0.382,0.163 0.769,-0.017 0.387,-0.18 0.505,-0.573 0.119,-0.396 -0.14,-0.953 -0.256,-0.551 -0.625,-0.709 -0.367,-0.159 -0.767,0.027 -0.4,0.186 -0.517,0.576 -0.118,0.387 0.14,0.94 z m 5.277,-0.741 -1.535,-2.504 -0.894,0.548 -0.312,-0.51 2.396,-1.468 0.312,0.51 -0.892,0.547 1.535,2.504 z"
         id="path63" />
    </g>
  </g>
  <g
     id="g1837">
    <g
       class="I"
       id="g75"
       transform="translate(-46.694,-125.856)">
      <path
         d="m 66.262,177.776 v 1.174 h 1.134 v 1.174 h 15.396 v -1.174 h 1.134 v -1.174 z"
         fill="#4a4a4a"
         class="F"
         id="path71" />
      <path
         d="m 69.32,180.124 v 3.55 l -9.759,2.453 v 16.347 h 9.759 11.547 v -22.349 z m -5.269,6.38 h 0.604 a 0.94,0.94 0 0 1 0.943,0.943 v 12.679 a 0.94,0.94 0 0 1 -0.943,0.943 h -0.604 a 0.94,0.94 0 0 1 -0.943,-0.943 v -12.679 a 0.94,0.94 0 0 1 0.943,-0.943 z m 5.735,0 h 0.604 a 0.94,0.94 0 0 1 0.943,0.943 v 12.679 a 0.94,0.94 0 0 1 -0.943,0.943 h -0.604 a 0.94,0.94 0 0 1 -0.943,-0.943 v -12.679 a 0.94,0.94 0 0 1 0.943,-0.943 z"
         class="F H"
         id="path73" />
    </g>
    <path
       d="M 28.4,44.572 18.113,51.92 H 28.4 38.688 Z"
       class="H"
       id="path77" />
    <path
       d="m 22.626,55.968 -9.76,2.453 v 1.849 l 9.76,-2.453 z"
       fill="#005224"
       id="path79" />
  </g>
  <g
     id="g1830">
    <g
       class="I"
       id="g85"
       transform="translate(-46.694,-125.856)">
      <path
         d="m 126.074,177.776 v 1.174 h 1.135 v 1.174 h 15.396 v -1.174 h 1.134 v -1.174 z"
         fill="#4a4a4a"
         class="F"
         id="path81" />
      <path
         d="m 140.68,180.124 v 3.55 l 9.759,2.453 v 16.347 h -9.759 -11.547 v -22.349 z m 5.269,6.38 h -0.604 a 0.94,0.94 0 0 0 -0.943,0.943 v 12.679 a 0.94,0.94 0 0 0 0.943,0.943 h 0.604 a 0.94,0.94 0 0 0 0.943,-0.943 v -12.679 a 0.94,0.94 0 0 0 -0.943,-0.943 z m -5.735,0 h -0.604 a 0.94,0.94 0 0 0 -0.943,0.943 v 12.679 a 0.94,0.94 0 0 0 0.943,0.943 h 0.604 a 0.94,0.94 0 0 0 0.943,-0.943 v -12.679 a 0.94,0.94 0 0 0 -0.943,-0.943 z"
         class="F H"
         id="path83" />
    </g>
    <path
       d="M 88.213,44.572 98.5,51.92 H 88.213 77.925 Z"
       class="H"
       id="path87" />
    <path
       d="m 93.986,55.968 9.76,2.453 v 1.849 l -9.76,-2.453 z"
       fill="#005224"
       id="path89" />
  </g>
  <path
     d="m 39.24,64.1 1.935,-0.08 17.13,-7.635 z"
     fill="#a9a9a9"
     id="path91" />
  <path
     d="M 36.907,63.833 39.241,64.1 58.306,56.385 Z"
     class="J"
     id="path93" />
  <path
     d="m 36.907,63.833 8.965,16.063 0.963,-1.74 L 39.241,64.1 Z"
     class="K"
     id="path95" />
  <path
     d="M 46.835,78.156 48.043,76.617 41.177,64.02 39.242,64.1 Z"
     class="J"
     id="path97" />
  <path
     d="m 46.834,78.156 -0.962,1.74 H 58.306 70.74 l -0.962,-1.74 H 58.306 Z"
     class="H"
     id="path99" />
  <path
     d="m 48.042,76.617 -1.208,1.539 H 58.306 69.778 L 68.57,76.617 H 58.306 Z"
     class="K"
     id="path101" />
  <path
     d="M 77.371,64.1 75.436,64.02 58.306,56.385 Z"
     fill="#a9a9a9"
     id="path103" />
  <path
     d="M 79.705,63.833 77.371,64.1 58.306,56.385 Z"
     class="J"
     id="path105" />
  <path
     d="M 79.705,63.833 70.74,79.896 69.777,78.156 77.371,64.1 Z"
     class="K"
     id="path107" />
  <path
     d="M 69.777,78.156 68.569,76.617 75.435,64.02 77.37,64.1 Z"
     class="J"
     id="path109" />
  <path
     d="m 58.306,56.385 -17.13,7.635 6.866,12.597 H 68.57 L 75.436,64.02 Z"
     fill="#c0c0c0"
     id="path111" />
  <g
     transform="matrix(1.522668,0,0,1.522668,-101.57421,-191.57193)"
     id="g121">
    <g
       fill="#2b2b2b"
       id="g117">
      <path
         d="m 97.305,171.764 h 15.39 v 1.586 h -15.39 z"
         class="F I"
         id="path113" />
      <path
         d="m 98.061,166.188 v 4.337 l -0.669,0.694 h 7.608 7.608 l -0.669,-0.694 v -4.337 H 105 Z"
         id="path115" />
    </g>
    <path
       d="m 100.401,135.943 -1.99,1.862 v 28.383 h 1.99 z m 2.478,-2.321 -1.942,1.818 v 30.748 h 1.942 z m 6.72,2.321 v 30.246 h 1.99 v -28.383 z m -2.478,-2.32 v 32.565 h 1.942 V 135.44 Z m -2.121,-1.986 -1.584,1.483 v 33.068 H 105 106.585 V 133.12 Z"
       class="H"
       id="path119" />
  </g>
  <g
     id="g1801">
    <path
       d="m 24.733,0.4 v 1.538 c 0,3.65 -1.627,5.927 -4.151,7.533 -2.524,1.606 -6.007,2.37 -9.252,2.37 H 9.789 v 61.317 c 0,8.874 3.904,20.365 11.911,29.791 8.007,9.426 20.226,16.716 36.606,16.716 16.38,0 28.601,-7.291 36.607,-16.717 8.006,-9.426 11.911,-20.917 11.911,-29.791 V 11.84 h -1.541 c -3.245,0 -6.727,-0.763 -9.252,-2.37 C 93.506,7.863 91.879,5.587 91.879,1.937 V 0.399 H 58.306 Z m 2.879,3.078 h 30.694 30.695 c 0.475,3.838 2.548,6.789 5.377,8.589 2.771,1.763 6.115,2.473 9.368,2.671 v 58.42 c 0,7.951 -3.659,18.946 -11.179,27.798 -7.52,8.852 -18.789,15.631 -34.261,15.631 -15.472,0 -26.74,-6.778 -34.26,-15.631 C 16.526,92.103 12.867,81.109 12.867,73.158 v -58.42 c 3.253,-0.198 6.598,-0.907 9.368,-2.671 2.828,-1.8 4.901,-4.75 5.377,-8.589 z"
       fill="#949400"
       stroke="#433900"
       stroke-width="0.8"
       id="path125" />
    <path
       d="m 25.699,1.367 v 0.57 c 0,3.937 -1.883,6.62 -4.598,8.348 -2.747,1.748 -6.375,2.523 -9.771,2.523 h -0.574 v 60.35 c 0,8.59 3.824,19.917 11.68,29.166 7.852,9.244 19.779,16.375 35.871,16.375 16.092,0 28.02,-7.131 35.871,-16.375 7.856,-9.249 11.68,-20.576 11.68,-29.166 v -60.35 h -0.574 c -3.397,0 -7.024,-0.775 -9.771,-2.523 -2.715,-1.728 -4.6,-4.41 -4.6,-8.348 V 1.367 H 58.306 Z m 1.914,1.145 h 30.693 30.693 a 0.967,0.967 0 0 1 0.959,0.848 c 0.441,3.558 2.332,6.234 4.938,7.893 2.573,1.637 5.755,2.33 8.908,2.521 a 0.967,0.967 0 0 1 0.908,0.965 v 58.42 c 0,8.248 -3.735,19.388 -11.41,28.424 -7.67,9.03 -19.241,15.973 -34.996,15.973 -15.755,0 -27.326,-6.942 -34.996,-15.973 C 15.635,92.547 11.9,81.407 11.9,73.159 v -58.42 a 0.967,0.967 0 0 1 0.908,-0.965 c 3.153,-0.192 6.335,-0.884 8.908,-2.521 2.605,-1.658 4.497,-4.334 4.938,-7.893 a 0.967,0.967 0 0 1 0.959,-0.848 z"
       class="C"
       id="path127" />
  </g>
  <path
     d="m 316.625,547.217 -1.885,2.969 -1.807,-2.627 -0.592,2.885 -2.982,-2.004 -0.521,2.863 -2.889,-1.744 -0.17,3.191 -2.678,-1.162 0.371,2.965 -3.854,-0.541 1.146,3.172 -3.525,-0.062 1.547,2.557 -3.668,0.406 1.76,2.496 -3.904,0.617 0.979,1.063 -0.193,1.801 -0.979,0.342 -2.662,-1.437 -0.273,3.26 -3.42,-1.641 0.154,3.588 -3.121,-1.012 0.736,3.277 -4.369,-0.189 1.623,3.424 -3.949,0.311 2.006,2.693 -4.059,0.85 2.236,2.602 -4.299,1.111 1.721,1.545 0.186,1.242 -2.127,0.98 -0.773,-0.184 0.15,0.471 -0.119,0.055 0.168,0.098 0.891,2.773 -4.24,0.262 1.967,3.459 -3.777,0.746 2.248,2.645 -3.818,1.33 2.461,2.523 -4.021,1.631 2.885,2.283 -1.039,0.678 -0.687,-0.541 0.139,0.898 -1.75,1.143 2.09,1.035 0.063,0.406 -3.85,-1.125 0.605,3.432 -3.65,-0.871 1.096,3.67 -3.203,-0.291 1.559,3.207 -4.16,0.859 2.436,3.146 -3.633,1.273 2.602,2.297 -3.594,1.859 2.795,2.148 -3.75,2.186 3.178,1.85 -2.996,2.629 3.723,1.225 -3.525,3.141 3.441,0.219 0.002,0.424 -0.449,0.795 -3.283,-1.041 1.299,3.93 -3.631,-0.607 2.148,2.795 -3.918,0.863 2.182,2.719 -3.619,0.992 2.723,2.691 -2.949,1.283 2.91,2.064 -3.236,2.752 3.648,1.588 -2.574,2.863 3.385,0.766 -2.258,3.355 3.482,0.543 -2.238,3.719 3.678,0.096 -0.711,1.951 -0.426,-0.078 0.258,0.539 -0.486,1.332 1.029,-0.189 1.197,2.514 -4.131,-0.166 2.785,2.811 -4.242,1.512 2.811,2.725 -3.893,1.611 3.412,2.617 -3.105,1.844 3.529,1.891 -3.217,3.52 4.285,1.258 -2.473,3.545 3.879,0.379 -2.043,4.055 3.955,0.115 -1.084,2.447 -1.227,0.023 0.766,1.018 -0.428,0.969 1.076,-0.107 1.383,1.836 -4.082,0.66 3.291,2.199 -3.857,2.326 3.299,2.109 -3.494,2.357 3.865,1.883 -2.676,2.426 3.838,1.148 -2.451,4.092 4.451,0.377 -1.709,3.973 3.875,-0.404 -1.193,4.381 3.898,-0.676 -1.043,4.762 3.945,-1.223 -0.104,4.475 2.105,-1.176 1.705,0.941 -0.012,0.703 -3.191,2.314 3.559,1.873 -3.371,2.717 4.121,1.592 -2.529,2.717 4.027,0.842 -2.154,4.402 h 4.59 l -1.406,4.215 3.936,-0.748 -0.844,4.588 3.934,-1.029 -0.656,4.965 3.936,-1.594 0.281,4.59 3.746,-2.529 0.375,5.434 2.809,-3.186 1.967,4.684 1.967,-3.652 2.154,4.871 1.688,-3.654 3.184,4.402 0.627,-4.027 c 9.922,10.285 22.856,20.458 37.082,24.514 17.362,4.95 19.884,4.745 26.643,5.676 -21.25,1.611 -45.307,6.442 -67.932,12.797 l 1.656,3.643 c 35.952,-11.203 64.151,-12.519 88.65,-14.285 24.5,1.766 52.699,3.083 88.65,14.285 l 1.656,-3.643 c -22.624,-6.355 -46.68,-11.185 -67.93,-12.797 5.202,-0.152 9.713,0.934 30.939,-6.83 11.373,-5.633 21.894,-12.921 31.328,-20.988 11.511,7.748 25.306,5.377 35.309,-5.66 -0.664,-0.213 -1.306,-0.384 -1.951,-0.559 3.334,-1.623 6.485,-3.893 9.295,-6.82 -0.973,-0.249 -1.923,-0.458 -2.855,-0.637 3.267,-1.803 6.314,-4.251 8.98,-7.346 -1.135,-0.226 -2.229,-0.393 -3.305,-0.529 4.074,-1.894 7.755,-4.699 11.078,-8.557 -1.471,-0.124 -2.884,-0.174 -4.271,-0.191 2.816,-1.543 5.452,-3.666 8.02,-6.646 -2.403,-0.532 -4.684,-0.815 -6.861,-0.889 4.587,-2.297 8.289,-5.705 10.67,-10.756 -1.646,-0.111 -3.249,-0.109 -4.812,-0.019 3.715,-2.252 6.705,-5.662 8.475,-10.729 -1.088,-0.027 -2.148,0.019 -3.195,0.096 2.374,-2.161 4.329,-5.227 6.033,-9.672 a 35.24,35.24 0 0 0 -6.014,0.678 c 3.823,-3.079 6.837,-7.647 8.922,-13.117 -0.98,-0.321 -2.707,0.029 -4.785,0.813 2.269,-3.089 3.987,-7.014 5.273,-11.598 -0.5,-0.115 -1.147,-0.068 -1.893,0.102 1.568,-2.738 2.81,-5.956 3.766,-9.592 -1.032,-0.219 -2.661,0.245 -4.561,1.146 1.565,-2.755 2.743,-6.044 3.604,-9.77 -0.895,-0.162 -2.245,0.228 -3.816,0.982 2.284,-3.129 3.91,-7.167 5.01,-11.928 -1.155,-0.209 -3.053,0.483 -5.232,1.729 1.529,-3.128 2.496,-6.875 2.998,-11.133 -1.454,-0.101 -3.89,1.295 -6.518,3.463 1.822,-3.693 2.639,-8.279 2.695,-13.541 -1.04,0.039 -2.504,0.902 -4.119,2.268 0.65,-2.769 0.899,-5.866 0.795,-9.252 -1.38,0.109 -3.467,1.745 -5.631,4.135 2.024,-4.071 2.513,-9.212 1.877,-15.137 -1.256,0.196 -3.01,1.727 -4.816,3.945 1.057,-3.641 1.106,-7.92 0.373,-12.691 -1.26,0.256 -2.976,1.921 -4.701,4.295 1.518,-3.932 1.693,-8.712 0.861,-14.129 -4.083,0.829 -12.954,16.383 -11.396,23.291 l -0.068,0.156 c -1.02,-2.372 -2.131,-4.779 -3.338,-7.223 l 0.939,-2.193 c 9.433,-5.027 10.873,-13.796 7.764,-24.693 -1.127,0.381 -2.489,2.026 -3.807,4.303 0.27,-3.623 -0.436,-7.642 -1.922,-11.979 -1.192,0.473 -2.584,2.407 -3.859,5.039 0.809,-3.912 0.181,-8.407 -1.506,-13.332 -3.615,1.435 -9.2,17.193 -6.629,23.283 l -0.604,2.561 c -1.64,-2.578 -3.393,-5.2 -5.25,-7.863 l 1.498,-4.072 c 8.12,-4.886 8.989,-12.716 5.732,-22.221 -3.433,1.363 -8.737,16.327 -6.295,22.111 l -0.973,4.127 c -1.873,-2.684 -3.862,-5.412 -5.967,-8.187 l 1.246,-3.592 c 8.028,-5.036 8.752,-12.879 5.32,-22.322 -3.407,1.426 -8.431,16.487 -5.883,22.225 l -0.773,3.57 -3.992,-5.15 c -0.587,-0.738 -1.255,-1.785 -1.941,-2.891 l 1.109,-3.199 c 8.028,-5.036 8.754,-12.879 5.322,-22.322 -3.407,1.426 -8.433,16.485 -5.885,22.223 l -0.67,3.1 c -1.348,-2.18 -2.784,-4.6 -3.998,-5.783 -0.417,-0.406 -0.682,-0.048 -0.951,0.307 l -0.543,-0.641 c -0.308,-11.814 -8.267,-17.573 -20.582,-19.885 -0.632,4.563 12.342,19.518 20.119,20.426 l 0.572,0.529 c -0.172,0.084 -0.367,0.055 -0.613,-0.23 l 3.857,5.375 -4.568,1.434 c -8.507,-4.344 -13.911,1.158 -20.223,3.781 7.322,0.58 15.715,4.8 20.594,-2.916 l 4.291,-2.166 5.963,8.654 -4.002,1.258 c -8.507,-4.344 -13.911,1.156 -20.223,3.779 7.322,0.58 15.715,4.802 20.594,-2.914 l 3.777,-1.906 5.066,7.758 -3.916,1.23 c -8.507,-4.344 -13.913,1.156 -20.225,3.779 7.322,0.58 15.717,4.802 20.596,-2.914 l 3.691,-1.863 4.701,7.633 -3.332,1.047 c -8.507,-4.344 -13.913,1.158 -20.225,3.781 7.322,0.58 15.717,4.8 20.596,-2.916 l 3.15,-1.59 a 262.07,262.07 0 0 1 5.111,9.004 l -4.512,1.02 c -8.121,-5.028 -13.961,0.012 -20.467,2.105 7.249,1.179 15.269,6.078 20.766,-1.211 l 4.303,-1.746 c 1.388,2.571 2.691,5.083 3.893,7.531 l -3.859,0.871 c -8.121,-5.028 -13.959,0.012 -20.465,2.105 7.249,1.179 15.268,6.076 20.764,-1.213 l 3.689,-1.496 c 1.89,3.863 3.561,7.585 5.021,11.176 l -0.049,0.111 -3.752,0.223 c -8.101,-6.556 -15.287,-2.315 -22.74,-1.229 7.752,2.427 15.761,8.831 22.926,2.201 l 3.803,-0.83 c 1.348,3.345 2.526,6.586 3.537,9.73 l -4.83,-0.201 c -7.396,-7.343 -14.975,-3.848 -22.5,-3.521 7.467,3.199 14.789,10.379 22.588,4.508 l 4.82,-0.551 c 0.933,2.918 1.714,5.75 2.387,8.523 l -5.176,-0.217 c -7.396,-7.343 -14.975,-3.848 -22.5,-3.521 7.467,3.199 14.789,10.381 22.588,4.51 l 5.133,-0.586 c 0.688,2.857 1.253,5.651 1.695,8.385 l -5.084,-0.213 c -7.727,-7.671 -15.644,-4.019 -23.506,-3.678 7.801,3.342 15.448,10.845 23.596,4.711 l 5.031,-0.576 c 0.453,2.839 0.787,5.622 1.01,8.361 l -4.939,-0.207 c -7.727,-7.671 -15.644,-4.021 -23.506,-3.68 7.801,3.342 15.45,10.845 23.598,4.711 l 4.873,-0.557 c 0.306,3.878 0.394,7.673 0.326,11.436 l -5.094,-1.029 c -6.429,-8.787 -14.821,-6.423 -22.639,-7.318 7.181,4.523 13.558,13.133 22.566,8.352 l 5.164,0.225 a 148.85,148.85 0 0 1 -0.451,8.871 l -4.242,-0.857 c -6.429,-8.787 -14.821,-6.421 -22.639,-7.316 7.181,4.523 13.558,13.133 22.566,8.352 l 4.287,0.186 -0.262,2.934 c -0.218,2.237 -0.644,4.481 -1.137,6.74 l -4.629,-1.094 c -6.139,-8.992 -14.604,-6.903 -22.389,-8.053 7.029,4.755 13.124,13.568 22.283,9.084 l 4.674,0.355 -2.012,9.01 -4.187,-1.377 c -5.346,-9.485 -13.958,-8.128 -21.615,-9.941 6.596,5.34 11.912,14.644 21.422,10.961 l 4.313,0.705 c -0.208,1.086 -0.399,2.175 -0.547,3.275 -0.264,1.967 -0.921,4.346 -1.898,7.016 l -4.324,-2.176 c -3.884,-10.172 -12.601,-10.103 -19.906,-13.029 5.733,6.258 9.614,16.243 19.564,14.008 l 4.568,1.467 c -0.987,2.654 -2.294,5.594 -3.918,8.764 l -4.246,-3.143 c -3.141,-10.425 -11.841,-10.987 -18.916,-14.432 5.267,6.654 8.418,16.894 18.504,15.381 l 4.523,2.447 c -1.192,2.312 -2.546,4.737 -4.049,7.246 l -3.059,-2.025 c -3.141,-10.425 -11.841,-10.987 -18.916,-14.432 5.267,6.654 8.418,16.894 18.504,15.381 l 3.279,1.402 c -1.665,2.763 -3.518,5.625 -5.531,8.545 l -3.059,-3.207 c -1.709,-11.191 -10.584,-13.041 -17.363,-17.621 4.449,7.62 6.197,18.624 16.801,18.541 l 3.42,2.58 c -2.02,2.917 -4.205,5.89 -6.543,8.879 l -2.369,-3.389 c -0.988,-11.278 -9.727,-13.692 -16.199,-18.697 3.952,7.89 4.991,18.981 15.578,19.578 l 2.756,2.805 c -1.619,2.062 -3.308,4.128 -5.066,6.189 l -1.834,-2.182 c -1.062,-11.875 -10.268,-14.403 -17.094,-19.662 4.177,8.302 5.29,19.981 16.441,20.59 l 2.166,1.627 c -1.671,1.95 -3.4,3.891 -5.187,5.816 l -2.873,-3.125 c -1.275,-11.27 -10.087,-13.465 -16.695,-18.314 4.158,7.802 5.477,18.883 16.096,19.213 l 3.227,2.49 c -2.733,2.933 -5.593,5.821 -8.574,8.629 l -1.414,-1.779 c -0.337,-12.857 -10.077,-16.202 -17.068,-22.328 3.933,9.221 4.341,21.87 16.305,23.283 l 1.744,1.227 c -2.107,1.971 -4.269,3.9 -6.486,5.773 l -3.586,-4.037 c 0.16,-11.732 -8.596,-15.133 -14.746,-20.971 3.25,8.548 3.16,20.092 14.014,21.814 l 4.102,3.375 c -8.802,7.411 -18.427,13.95 -28.6,18.732 -15.227,5.653 -31.99,7.202 -52.758,8.018 -15.579,-0.612 -37.113,-4.418 -49.227,-7.277 -12.199,-3.836 -23.225,-11.385 -33.074,-20.064 l -0.68,-3.396 4.215,2.154 -1.498,-4.027 4.684,2.248 -2.623,-4.121 4.777,0.842 -3.279,-3.184 5.059,-0.375 -4.402,-3.84 4.777,-0.75 -4.684,-2.436 4.871,-1.967 -4.871,-2.623 5.152,-2.715 -4.777,-1.219 3.652,-2.996 -4.963,-1.219 4.027,-3.84 -5.527,-0.937 3.652,-3.84 -5.713,-0.187 2.811,-3.652 h -4.965 l 2.154,-4.777 -4.871,1.031 1.781,-4.309 -5.434,1.873 1.313,-4.684 -4.777,2.061 0.01,-0.051 4.213,-1.785 -3.594,-1.246 0.213,-1.039 -0.965,0.777 -0.186,-0.064 3.789,-2.607 -4.715,-1.588 4.221,-3.395 -5.281,-1.361 3.857,-3.424 -5.525,-0.652 3.025,-3.311 -4.814,-0.408 1.209,-2.17 0.459,-0.045 -0.279,-0.277 1.094,-1.963 -2.736,0.342 -1.285,-1.27 0.428,-0.828 4.504,-0.912 -4.129,-2.445 4.232,-1.799 -4.301,-2.496 4.813,-2.484 -4.904,-2.387 4.463,-2.586 -5.283,-1.74 3.623,-2.643 -4.635,-1.359 3.32,-3.871 -4.832,-0.371 2.844,-3.537 -5.588,0.262 2.508,-4.016 -3.891,0.479 -0.635,-0.807 0.623,-1.176 3.574,-0.268 -3.375,-2.619 3.939,-1.119 -3.523,-2.684 4.529,-1.658 -4.068,-2.656 4.232,-1.789 -4.477,-2.125 3.496,-1.932 -3.943,-1.717 3.363,-3.051 -4.227,-0.865 2.121,-2.051 0.199,0.09 -0.086,-0.199 0.67,-0.648 -0.986,-0.078 -1.299,-2.994 3.992,0.912 -1.799,-4.047 4.77,0.721 -2.291,-4.283 4.57,0.465 -2.904,-4.014 3.994,-0.012 -2.635,-3.402 4.418,-1.059 -3.291,-2.791 3.896,-1.066 -4.166,-2.729 0.334,-0.135 3.127,1.998 -0.807,-2.943 1.25,-0.508 -0.391,-0.217 2.641,1.016 -1.209,-4.264 4.619,1.391 -1.66,-4.564 4.457,1.107 -2.305,-4.385 3.955,0.553 -2.125,-3.742 4.521,-0.422 -2.863,-3.229 4.01,-0.504 -3.738,-3.291 0.148,-0.037 3.738,1.445 -0.598,-2.227 0.801,-0.199 -1.074,-0.811 -0.318,-1.187 4.439,1.486 -1.869,-4.322 3.988,0.92 -1.758,-3.703 4.676,0.066 -2.568,-3.301 4.16,-0.061 -3.457,-3.449 0.1,-0.012 1.123,1.002 -0.088,-1.131 3.166,-0.391 -0.201,-0.172 0.018,0.01 -0.287,-3.289 0.559,-0.107 3.305,1.658 -0.676,-4.02 3.805,1.695 -1.285,-3.988 3.453,1.154 -1.24,-3.43 4.137,0.459 -1.994,-3.145 3.691,0.301 -2.77,-3.35 3.855,-0.104 -2.746,-2.855 3.314,-0.307 -2.889,-1.744 3.152,-1.402 -3.852,-1.826 3.434,-1.482 -4.842,-0.898 2.355,-2.531 -4.256,0.289 1.252,-3.857 -3.832,0.811 0.592,-2.883 -3.223,1.637 -0.584,-2.689 -2.471,1.992 z m 192.912,50.58 c -1.816,5.431 -2.802,11.743 -1.35,15.184 l -0.299,1.27 a 193.48,193.48 0 0 0 -5.014,-8.359 l 1.01,-2.744 c 2.529,-1.522 4.374,-3.32 5.652,-5.35 z m 3.785,11.639 c -1.157,4.117 -1.636,8.22 -0.695,10.818 l -0.547,1.879 c -1.199,-2.407 -2.493,-4.851 -3.885,-7.332 l 0.625,-1.697 c 1.818,-1.094 3.301,-2.323 4.502,-3.668 z m 9.934,15.936 c -2.591,4.904 -4.487,10.63 -3.697,14.135 l -0.096,0.221 c -1.022,-3.01 -2.187,-6.075 -3.51,-9.199 l 0.365,-0.623 c 2.934,-1.118 5.21,-2.653 6.938,-4.533 z m -9.543,8.979 c 0.01,0.026 0.019,0.051 0.029,0.076 l -0.076,0.004 z m 11.99,2.186 c -2.14,4.231 -3.57,8.705 -3.035,11.705 l -0.42,0.859 c -0.712,-2.821 -1.56,-5.691 -2.529,-8.607 l 0.441,-0.754 c 2.207,-0.841 4.03,-1.924 5.543,-3.203 z m 4.02,8.469 c -3.018,4.509 -5.388,9.722 -5.039,13.199 l -0.408,0.695 c -0.481,-2.976 -1.1,-6.002 -1.855,-9.078 l 0.852,-1.312 c 2.597,-0.857 4.731,-2.036 6.451,-3.504 z m -250.609,0.777 1.557,0.709 -2.004,-0.158 z m 249.795,11.492 c -1.592,3.008 -2.609,5.957 -2.475,8.238 l -1.129,1.752 c -0.216,-2.502 -0.519,-5.035 -0.916,-7.602 l 0.877,-1.148 a 21.39,21.39 0 0 0 3.643,-1.24 z m 3.76,6.619 c -2.632,3.432 -4.59,7.057 -4.725,9.863 l -2.205,2.734 c -0.023,-2.84 -0.143,-5.711 -0.379,-8.623 l 1.666,-2.004 c 2.131,-0.434 4.002,-1.101 5.643,-1.971 z m -0.457,9.609 c -2.204,2.599 -3.832,5.264 -4.191,7.523 l -2.406,2.391 c 0.099,-2.172 0.141,-4.364 0.129,-6.572 l 2.754,-2.676 a 22.42,22.42 0 0 0 3.715,-0.666 z m 2.385,7.234 c -3.899,3.604 -7.235,7.868 -7.77,11.234 l -2.09,2.076 c 0.393,-3.393 0.691,-6.812 0.857,-10.273 l 2.928,-2.277 c 2.233,0.034 4.247,-0.235 6.074,-0.76 z m -2.865,11.336 c -2.937,3.017 -5.219,6.235 -5.734,8.949 l -2.885,2.697 c 0.583,-2.766 1.127,-5.541 1.475,-8.357 l 0.1,-0.863 2.645,-2.059 c 1.573,0.024 3.032,-0.11 4.4,-0.367 z m -2.217,9.398 c -2.899,2.917 -5.152,6.022 -5.701,8.672 l -2.531,2.291 1.76,-8.359 3.473,-2.539 c 1.046,0.048 2.037,0.01 3,-0.064 z m -0.959,9.092 c -3.389,2.735 -6.128,5.716 -6.904,8.271 l -2.488,1.969 c 0.78,-2.268 1.353,-4.367 1.693,-6.246 0.102,-0.563 0.228,-1.12 0.338,-1.682 l 3.129,-2.211 c 1.494,0.093 2.902,0.055 4.232,-0.102 z m -6.469,8.807 c 1.356,0.209 2.667,0.28 3.934,0.23 -3.578,2.11 -6.697,4.742 -9.416,7.576 0.978,-2.17 1.824,-4.247 2.498,-6.187 z m -1.459,10.469 c -3.359,2.04 -6.318,4.423 -8.859,6.783 1.225,-2.151 2.332,-4.241 3.33,-6.262 z m -3.777,9.104 c -4.374,2.117 -8.186,4.874 -11.391,7.789 1.789,-2.638 3.427,-5.227 4.932,-7.754 2.155,0.077 4.322,0.081 6.459,-0.035 z m -8.459,10.969 c -3.21,1.608 -6.274,3.57 -9.32,5.635 1.394,-1.808 2.728,-3.607 4.004,-5.395 1.804,-0.038 3.579,-0.115 5.316,-0.24 z m -4.58,7.34 c -4.709,1.947 -8.352,4.242 -11.113,6.107 a 190.37,190.37 0 0 0 5.021,-6.09 l 6.092,-0.018 z m -11.645,6.721 c 1.833,0.349 3.618,0.624 5.35,0.813 -3.701,1.466 -7.211,3.31 -10.777,5.188 a 192.1,192.1 0 0 0 5.428,-6 z m -5.939,6.539 c 1.186,0.591 2.387,1.092 3.598,1.506 -2.966,1.081 -5.847,2.379 -8.75,3.711 1.768,-1.72 3.483,-3.462 5.152,-5.217 z M 480,776.758 a 29.32,29.32 0 0 0 3.51,1.65 c -3.436,1.21 -6.753,2.763 -10.105,4.361 a 182.31,182.31 0 0 0 6.596,-6.012 z"
     transform="matrix(0.26458333,0,0,0.26458333,-46.694,-125.856)"
     filter="url(#L)"
     id="path129" />
  <path
     d="m 80.119,26.504 c 11.001,15.12 12.185,23.087 11.375,31.409 -0.165,1.7 -0.772,3.413 -1.012,5.203 -0.635,4.733 -9.385,18.069 -20.619,23.349 -4.029,1.496 -8.464,1.905 -13.959,2.121 -4.122,-0.162 -9.82,-1.169 -13.025,-1.926 -3.786,-1.19 -7.146,-3.731 -10.077,-6.523 l -0.203,0.158 c 2.685,2.903 6.316,5.894 10.336,7.04 4.594,1.31 5.261,1.255 7.049,1.502 -5.623,0.426 -11.987,1.704 -17.974,3.386 l 0.438,0.964 c 9.512,-2.964 16.973,-3.312 23.455,-3.78 6.482,0.467 13.943,0.816 23.455,3.78 l 0.438,-0.964 C 73.81,90.542 67.445,89.264 61.823,88.837 c 1.376,-0.04 2.57,0.247 8.186,-1.807 C 81.768,81.206 90.114,68.721 91.113,63.202 91.421,61.501 91.888,59.84 92.1,58.123 93.121,49.849 92.028,41.007 82.249,28.716 81.78,28.127 81.14,26.851 80.645,26.368 80.418,26.147 80.36,26.784 80.116,26.502 Z"
     fill="#949400"
     id="path131" />
  <g
     id="g2017">
    <g
       transform="matrix(1.127184,-0.309373,0.309373,1.127184,-127.63553,-115.60363)"
       id="g137">
      <path
         id="use133"
         d="m 122.104,202.473 c 0.197,2.061 -0.514,4.575 1.752,5.602 l 0.932,1.321 -0.721,-1.461 c 0.738,-2.551 -0.97,-3.819 -1.963,-5.461 z"
         style="fill:#ffff00;stroke:#949400;stroke-width:0.265;" />
      <path
         id="use135"
         d="m 122.659,203.981 c 0.416,1.007 0.82,2.012 1.041,2.986 0.155,-1.593 -0.544,-2.17 -1.041,-2.986 z"
         style="fill:#ffffc3;" />
    </g>
    <g
       transform="matrix(1.221167,-0.388068,0.388068,1.221167,-153.2534,-126.41924)"
       id="g143">
      <path
         d="m 122.104,202.473 c 0.197,2.061 -0.514,4.575 1.752,5.602 l 0.528,0.693 -0.317,-0.833 c 0.738,-2.551 -0.97,-3.819 -1.963,-5.461 z"
         class="B C D"
         id="path139" />
      <path
         id="use141"
         d="m 122.659,203.981 c 0.416,1.007 0.82,2.012 1.041,2.986 0.155,-1.593 -0.544,-2.17 -1.041,-2.986 z"
         style="fill:#ffffc3;" />
    </g>
    <g
       transform="matrix(1.043283,-0.43394,0.43394,1.043283,-138.77482,-86.448699)"
       id="g149">
      <path
         d="m 122.104,202.473 c 0.197,2.061 -0.514,4.575 1.752,5.602 l 0.72,1.259 -0.509,-1.399 c 0.738,-2.551 -0.97,-3.819 -1.963,-5.461 z"
         class="B C D"
         id="path145" />
      <path
         id="use147"
         d="m 122.659,203.981 c 0.416,1.007 0.82,2.012 1.041,2.986 0.155,-1.593 -0.544,-2.17 -1.041,-2.986 z"
         style="fill:#ffffc3;" />
    </g>
    <g
       transform="matrix(1.107129,-0.430304,0.430304,1.107129,-144.20779,-101.5639)"
       id="g155">
      <path
         d="m 122.104,202.473 c 0.197,2.061 -0.514,4.575 1.752,5.602 l 0.571,0.919 -0.361,-1.059 c 0.738,-2.551 -0.97,-3.819 -1.963,-5.461 z"
         class="B C D"
         id="path151" />
      <path
         id="use153"
         d="m 122.659,203.981 c 0.416,1.007 0.82,2.012 1.041,2.986 0.155,-1.593 -0.544,-2.17 -1.041,-2.986 z"
         style="fill:#ffffc3;" />
    </g>
    <g
       transform="matrix(1.051964,-0.406716,0.406716,1.051964,-131.1981,-95.055047)"
       id="g161">
      <path
         d="m 122.104,202.473 c 0.197,2.061 -0.514,4.575 1.752,5.602 l 0.569,1.315 -0.358,-1.455 c 0.738,-2.551 -0.97,-3.819 -1.963,-5.461 z"
         class="B C D"
         id="path157" />
      <path
         id="use159"
         d="m 122.659,203.981 c 0.416,1.007 0.82,2.012 1.041,2.986 0.155,-1.593 -0.544,-2.17 -1.041,-2.986 z"
         style="fill:#ffffc3;" />
    </g>
    <g
       transform="matrix(1.023749,-0.473271,0.473271,1.023749,-139.93429,-83.30949)"
       id="g167">
      <path
         d="m 122.104,202.473 c 0.197,2.061 -0.514,4.575 1.752,5.602 l 0.711,1.33 -0.501,-1.47 c 0.738,-2.551 -0.97,-3.819 -1.963,-5.461 z"
         class="B C D"
         id="path163" />
      <path
         id="use165"
         d="m 122.659,203.981 c 0.416,1.007 0.82,2.012 1.041,2.986 0.155,-1.593 -0.544,-2.17 -1.041,-2.986 z"
         style="fill:#ffffc3;" />
    </g>
    <g
       transform="matrix(0.910812,-0.589105,0.589105,0.910812,-148.49472,-47.489913)"
       id="g173">
      <path
         d="m 122.104,202.473 c 0.197,2.061 -0.514,4.575 1.752,5.602 l 0.773,1.147 -0.562,-1.288 c 0.738,-2.551 -0.97,-3.819 -1.963,-5.461 z"
         class="B C D"
         id="path169" />
      <path
         id="use171"
         d="m 122.659,203.981 c 0.416,1.007 0.82,2.012 1.041,2.986 0.155,-1.593 -0.544,-2.17 -1.041,-2.986 z"
         style="fill:#ffffc3;" />
    </g>
    <g
       transform="matrix(0.910812,-0.589105,0.589105,0.910812,-147.7017,-49.769859)"
       id="g179">
      <path
         d="m 122.104,202.473 c 0.197,2.061 -0.514,4.575 1.752,5.602 l 0.839,1.533 -0.629,-1.673 c 0.738,-2.551 -0.97,-3.819 -1.963,-5.461 z"
         class="B C D"
         id="path175" />
      <path
         id="use177"
         d="m 122.659,203.981 c 0.416,1.007 0.82,2.012 1.041,2.986 0.155,-1.593 -0.544,-2.17 -1.041,-2.986 z"
         style="fill:#ffffc3;" />
    </g>
    <g
       transform="matrix(0.866012,-0.653182,0.653182,0.866012,-154.42552,-34.638204)"
       id="g185">
      <path
         id="use181"
         d="m 122.104,202.473 c 0.197,2.061 -0.514,4.575 1.752,5.602 l 0.932,1.321 -0.721,-1.461 c 0.738,-2.551 -0.97,-3.819 -1.963,-5.461 z"
         style="fill:#ffff00;stroke:#949400;stroke-width:0.265;" />
      <path
         id="use183"
         d="m 122.659,203.981 c 0.416,1.007 0.82,2.012 1.041,2.986 0.155,-1.593 -0.544,-2.17 -1.041,-2.986 z"
         style="fill:#ffffc3;" />
    </g>
    <g
       transform="matrix(0.759821,-0.774142,0.774142,0.759821,-165.70142,-0.15384)"
       id="g191">
      <path
         id="use187"
         d="m 122.104,202.473 c 0.197,2.061 -0.514,4.575 1.752,5.602 l 0.932,1.321 -0.721,-1.461 c 0.738,-2.551 -0.97,-3.819 -1.963,-5.461 z"
         style="fill:#ffff00;stroke:#949400;stroke-width:0.265;" />
      <path
         id="use189"
         d="m 122.659,203.981 c 0.416,1.007 0.82,2.012 1.041,2.986 0.155,-1.593 -0.544,-2.17 -1.041,-2.986 z"
         style="fill:#ffffc3;" />
    </g>
    <g
       transform="matrix(0.69069,-0.836403,0.836403,0.69069,-169.63939,19.55881)"
       id="g197">
      <path
         id="use193"
         d="m 122.104,202.473 c 0.197,2.061 -0.514,4.575 1.752,5.602 l 0.932,1.321 -0.721,-1.461 c 0.738,-2.551 -0.97,-3.819 -1.963,-5.461 z"
         style="fill:#ffff00;stroke:#949400;stroke-width:0.265;" />
      <path
         id="use195"
         d="m 122.659,203.981 c 0.416,1.007 0.82,2.012 1.041,2.986 0.155,-1.593 -0.544,-2.17 -1.041,-2.986 z"
         style="fill:#ffffc3;" />
    </g>
    <g
       transform="matrix(0.663023,-0.858501,0.858501,0.663023,-170.32219,25.4603)"
       id="g203">
      <path
         id="use199"
         d="m 122.104,202.473 c 0.197,2.061 -0.514,4.575 1.752,5.602 l 0.932,1.321 -0.721,-1.461 c 0.738,-2.551 -0.97,-3.819 -1.963,-5.461 z"
         style="fill:#ffff00;stroke:#949400;stroke-width:0.265;" />
      <path
         id="use201"
         d="m 122.659,203.981 c 0.416,1.007 0.82,2.012 1.041,2.986 0.155,-1.593 -0.544,-2.17 -1.041,-2.986 z"
         style="fill:#ffffc3;" />
    </g>
    <g
       transform="matrix(0.663023,-0.858501,0.858501,0.663023,-170.42733,23.00701)"
       id="g209">
      <path
         id="use205"
         d="m 122.104,202.473 c 0.197,2.061 -0.514,4.575 1.752,5.602 l 0.932,1.321 -0.721,-1.461 c 0.738,-2.551 -0.97,-3.819 -1.963,-5.461 z"
         style="fill:#ffff00;stroke:#949400;stroke-width:0.265;" />
      <path
         id="use207"
         d="m 122.659,203.981 c 0.416,1.007 0.82,2.012 1.041,2.986 0.155,-1.593 -0.544,-2.17 -1.041,-2.986 z"
         style="fill:#ffffc3;" />
    </g>
    <g
       transform="matrix(0.520285,-0.951802,0.951802,0.520285,-172.17112,61.38359)"
       id="g215">
      <path
         id="use211"
         d="m 122.104,202.473 c 0.197,2.061 -0.514,4.575 1.752,5.602 l 0.932,1.321 -0.721,-1.461 c 0.738,-2.551 -0.97,-3.819 -1.963,-5.461 z"
         style="fill:#ffff00;stroke:#949400;stroke-width:0.265;" />
      <path
         id="use213"
         d="m 122.659,203.981 c 0.416,1.007 0.82,2.012 1.041,2.986 0.155,-1.593 -0.544,-2.17 -1.041,-2.986 z"
         style="fill:#ffffc3;" />
    </g>
    <g
       transform="matrix(0.520285,-0.951802,0.951802,0.520285,-172.48654,59.10553)"
       id="g221">
      <path
         id="use217"
         d="m 122.104,202.473 c 0.197,2.061 -0.514,4.575 1.752,5.602 l 0.932,1.321 -0.721,-1.461 c 0.738,-2.551 -0.97,-3.819 -1.963,-5.461 z"
         style="fill:#ffff00;stroke:#949400;stroke-width:0.265;" />
      <path
         id="use219"
         d="m 122.659,203.981 c 0.416,1.007 0.82,2.012 1.041,2.986 0.155,-1.593 -0.544,-2.17 -1.041,-2.986 z"
         style="fill:#ffffc3;" />
    </g>
    <g
       transform="matrix(0.498011,-0.911052,0.911052,0.498011,-161.73425,56.41263)"
       id="g227">
      <path
         id="use223"
         d="m 122.104,202.473 c 0.197,2.061 -0.514,4.575 1.752,5.602 l 0.932,1.321 -0.721,-1.461 c 0.738,-2.551 -0.97,-3.819 -1.963,-5.461 z"
         style="fill:#ffff00;stroke:#949400;stroke-width:0.265;" />
      <path
         id="use225"
         d="m 122.659,203.981 c 0.416,1.007 0.82,2.012 1.041,2.986 0.155,-1.593 -0.544,-2.17 -1.041,-2.986 z"
         style="fill:#ffffc3;" />
    </g>
    <g
       transform="matrix(0.498011,-0.911052,0.911052,0.498011,-162.295,54.09952)"
       id="g233">
      <path
         id="use229"
         d="m 122.104,202.473 c 0.197,2.061 -0.514,4.575 1.752,5.602 l 0.932,1.321 -0.721,-1.461 c 0.738,-2.551 -0.97,-3.819 -1.963,-5.461 z"
         style="fill:#ffff00;stroke:#949400;stroke-width:0.265;" />
      <path
         id="use231"
         d="m 122.659,203.981 c 0.416,1.007 0.82,2.012 1.041,2.986 0.155,-1.593 -0.544,-2.17 -1.041,-2.986 z"
         style="fill:#ffffc3;" />
    </g>
    <g
       transform="matrix(0.403265,-0.95677,0.95677,0.403265,-160.75976,76.91331)"
       id="g239">
      <path
         id="use235"
         d="m 122.104,202.473 c 0.197,2.061 -0.514,4.575 1.752,5.602 l 0.932,1.321 -0.721,-1.461 c 0.738,-2.551 -0.97,-3.819 -1.963,-5.461 z"
         style="fill:#ffff00;stroke:#949400;stroke-width:0.265;" />
      <path
         id="use237"
         d="m 122.659,203.981 c 0.416,1.007 0.82,2.012 1.041,2.986 0.155,-1.593 -0.544,-2.17 -1.041,-2.986 z"
         style="fill:#ffffc3;" />
    </g>
    <g
       transform="matrix(0.23017,-0.961308,0.908781,0.243474,-130.68368,107.81707)"
       id="g245">
      <path
         id="use241"
         d="m 122.104,202.473 c 0.197,2.061 -0.514,4.575 1.752,5.602 l 0.932,1.321 -0.721,-1.461 c 0.738,-2.551 -0.97,-3.819 -1.963,-5.461 z"
         style="fill:#ffff00;stroke:#949400;stroke-width:0.265;" />
      <path
         id="use243"
         d="m 122.659,203.981 c 0.416,1.007 0.82,2.012 1.041,2.986 0.155,-1.593 -0.544,-2.17 -1.041,-2.986 z"
         style="fill:#ffffc3;" />
    </g>
    <g
       transform="matrix(0.23017,-0.961308,0.908781,0.243474,-131.91032,105.81939)"
       id="g251">
      <path
         id="use247"
         d="m 122.104,202.473 c 0.197,2.061 -0.514,4.575 1.752,5.602 l 0.932,1.321 -0.721,-1.461 c 0.738,-2.551 -0.97,-3.819 -1.963,-5.461 z"
         style="fill:#ffff00;stroke:#949400;stroke-width:0.265;" />
      <path
         id="use249"
         d="m 122.659,203.981 c 0.416,1.007 0.82,2.012 1.041,2.986 0.155,-1.593 -0.544,-2.17 -1.041,-2.986 z"
         style="fill:#ffffc3;" />
    </g>
    <g
       transform="matrix(0.150386,-0.976972,0.925716,0.167961,-126.6237,121.00409)"
       id="g257">
      <path
         id="use253"
         d="m 122.104,202.473 c 0.197,2.061 -0.514,4.575 1.752,5.602 l 0.932,1.321 -0.721,-1.461 c 0.738,-2.551 -0.97,-3.819 -1.963,-5.461 z"
         style="fill:#ffff00;stroke:#949400;stroke-width:0.265;" />
      <path
         id="use255"
         d="m 122.659,203.981 c 0.416,1.007 0.82,2.012 1.041,2.986 0.155,-1.593 -0.544,-2.17 -1.041,-2.986 z"
         style="fill:#ffffc3;" />
    </g>
    <g
       transform="matrix(0.150386,-0.976972,0.925716,0.167961,-128.06063,118.97136)"
       id="g263">
      <path
         id="use259"
         d="m 122.104,202.473 c 0.197,2.061 -0.514,4.575 1.752,5.602 l 0.932,1.321 -0.721,-1.461 c 0.738,-2.551 -0.97,-3.819 -1.963,-5.461 z"
         style="fill:#ffff00;stroke:#949400;stroke-width:0.265;" />
      <path
         id="use261"
         d="m 122.659,203.981 c 0.416,1.007 0.82,2.012 1.041,2.986 0.155,-1.593 -0.544,-2.17 -1.041,-2.986 z"
         style="fill:#ffffc3;" />
    </g>
    <g
       transform="matrix(0.150386,-0.976972,0.925716,0.167961,-129.46252,116.86854)"
       id="g269">
      <path
         id="use265"
         d="m 122.104,202.473 c 0.197,2.061 -0.514,4.575 1.752,5.602 l 0.932,1.321 -0.721,-1.461 c 0.738,-2.551 -0.97,-3.819 -1.963,-5.461 z"
         style="fill:#ffff00;stroke:#949400;stroke-width:0.265;" />
      <path
         id="use267"
         d="m 122.659,203.981 c 0.416,1.007 0.82,2.012 1.041,2.986 0.155,-1.593 -0.544,-2.17 -1.041,-2.986 z"
         style="fill:#ffffc3;" />
    </g>
    <g
       transform="matrix(0.150386,-0.976972,0.925716,0.167961,-131.21487,114.59048)"
       id="g275">
      <path
         id="use271"
         d="m 122.104,202.473 c 0.197,2.061 -0.514,4.575 1.752,5.602 l 0.932,1.321 -0.721,-1.461 c 0.738,-2.551 -0.97,-3.819 -1.963,-5.461 z"
         style="fill:#ffff00;stroke:#949400;stroke-width:0.265;" />
      <path
         id="use273"
         d="m 122.659,203.981 c 0.416,1.007 0.82,2.012 1.041,2.986 0.155,-1.593 -0.544,-2.17 -1.041,-2.986 z"
         style="fill:#ffffc3;" />
    </g>
    <path
       id="use277"
       d="m 81.883,27.081 -0.262,1.211 0.411,-1.185 c 2.124,-1.332 2.316,-3.408 1.408,-5.906 -0.901,0.377 -2.231,4.362 -1.557,5.88 z"
       style="fill:#ffff00;stroke:#949400;stroke-width:0.265;" />
    <path
       id="use279"
       d="m 83.364,22.603 c 0.183,1.201 0.23,2.383 -0.876,3.4 0.331,-0.75 0.607,-2.041 0.876,-3.4 z"
       style="fill:#ffffc3;" />
    <path
       id="use281"
       d="m 83.513,29.136 -0.262,1.211 0.411,-1.185 c 2.124,-1.332 2.316,-3.408 1.408,-5.906 -0.901,0.377 -2.231,4.362 -1.557,5.88 z"
       style="fill:#ffff00;stroke:#949400;stroke-width:0.265;" />
    <path
       id="use283"
       d="m 84.994,24.658 c 0.183,1.201 0.23,2.383 -0.876,3.4 0.331,-0.75 0.607,-2.041 0.876,-3.4 z"
       style="fill:#ffffc3;" />
    <g
       transform="rotate(1.059975,6760.8679,-10142.644)"
       id="g289">
      <path
         id="use285"
         d="m 274.515,152.937 -0.262,1.211 0.411,-1.185 c 2.124,-1.332 2.316,-3.408 1.408,-5.906 -0.901,0.377 -2.231,4.362 -1.557,5.88 z"
         style="fill:#ffff00;stroke:#949400;stroke-width:0.265;" />
      <path
         id="use287"
         d="m 275.996,148.459 c 0.183,1.201 0.23,2.383 -0.876,3.4 0.331,-0.75 0.607,-2.041 0.876,-3.4 z"
         style="fill:#ffffc3;" />
    </g>
    <g
       transform="matrix(1.052805,0.019487,-0.019487,1.052805,-199.56101,-132.66582)"
       id="g295">
      <path
         id="use291"
         d="m 274.515,152.937 -0.262,1.211 0.411,-1.185 c 2.124,-1.332 2.316,-3.408 1.408,-5.906 -0.901,0.377 -2.231,4.362 -1.557,5.88 z"
         style="fill:#ffff00;stroke:#949400;stroke-width:0.265;" />
      <path
         id="use293"
         d="m 275.996,148.459 c 0.183,1.201 0.23,2.383 -0.876,3.4 0.331,-0.75 0.607,-2.041 0.876,-3.4 z"
         style="fill:#ffffc3;" />
    </g>
    <g
       transform="matrix(1.127724,0.020874,-0.020874,1.127724,-218.62048,-141.87212)"
       id="g301">
      <path
         id="use297"
         d="m 274.515,152.937 -0.262,1.211 0.411,-1.185 c 2.124,-1.332 2.316,-3.408 1.408,-5.906 -0.901,0.377 -2.231,4.362 -1.557,5.88 z"
         style="fill:#ffff00;stroke:#949400;stroke-width:0.265;" />
      <path
         id="use299"
         d="m 275.996,148.459 c 0.183,1.201 0.23,2.383 -0.876,3.4 0.331,-0.75 0.607,-2.041 0.876,-3.4 z"
         style="fill:#ffffc3;" />
    </g>
    <g
       transform="matrix(1.125105,0.079592,-0.079592,1.125105,-207.74689,-155.66611)"
       id="g307">
      <path
         id="use303"
         d="m 274.515,152.937 -0.262,1.211 0.411,-1.185 c 2.124,-1.332 2.316,-3.408 1.408,-5.906 -0.901,0.377 -2.231,4.362 -1.557,5.88 z"
         style="fill:#ffff00;stroke:#949400;stroke-width:0.265;" />
      <path
         id="use305"
         d="m 275.996,148.459 c 0.183,1.201 0.23,2.383 -0.876,3.4 0.331,-0.75 0.607,-2.041 0.876,-3.4 z"
         style="fill:#ffffc3;" />
    </g>
    <g
       transform="matrix(1.106272,0.219906,-0.219906,1.106272,-180.29999,-188.81259)"
       id="g313">
      <path
         id="use309"
         d="m 274.515,152.937 -0.262,1.211 0.411,-1.185 c 2.124,-1.332 2.316,-3.408 1.408,-5.906 -0.901,0.377 -2.231,4.362 -1.557,5.88 z"
         style="fill:#ffff00;stroke:#949400;stroke-width:0.265;" />
      <path
         id="use311"
         d="m 275.996,148.459 c 0.183,1.201 0.23,2.383 -0.876,3.4 0.331,-0.75 0.607,-2.041 0.876,-3.4 z"
         style="fill:#ffffc3;" />
    </g>
    <g
       transform="matrix(1.106272,0.219906,-0.219906,1.106272,-179.28393,-186.21048)"
       id="g319">
      <path
         id="use315"
         d="m 274.515,152.937 -0.262,1.211 0.411,-1.185 c 2.124,-1.332 2.316,-3.408 1.408,-5.906 -0.901,0.377 -2.231,4.362 -1.557,5.88 z"
         style="fill:#ffff00;stroke:#949400;stroke-width:0.265;" />
      <path
         id="use317"
         d="m 275.996,148.459 c 0.183,1.201 0.23,2.383 -0.876,3.4 0.331,-0.75 0.607,-2.041 0.876,-3.4 z"
         style="fill:#ffffc3;" />
    </g>
    <g
       transform="matrix(1.120671,0.276104,-0.276104,1.120671,-173.81916,-201.52875)"
       id="g325">
      <path
         id="use321"
         d="m 274.515,152.937 -0.262,1.211 0.411,-1.185 c 2.124,-1.332 2.316,-3.408 1.408,-5.906 -0.901,0.377 -2.231,4.362 -1.557,5.88 z"
         style="fill:#ffff00;stroke:#949400;stroke-width:0.265;" />
      <path
         id="use323"
         d="m 275.996,148.459 c 0.183,1.201 0.23,2.383 -0.876,3.4 0.331,-0.75 0.607,-2.041 0.876,-3.4 z"
         style="fill:#ffffc3;" />
    </g>
    <g
       transform="matrix(1.096335,0.360814,-0.360814,1.096335,-153.64987,-218.42539)"
       id="g331">
      <path
         id="use327"
         d="m 274.515,152.937 -0.262,1.211 0.411,-1.185 c 2.124,-1.332 2.316,-3.408 1.408,-5.906 -0.901,0.377 -2.231,4.362 -1.557,5.88 z"
         style="fill:#ffff00;stroke:#949400;stroke-width:0.265;" />
      <path
         id="use329"
         d="m 275.996,148.459 c 0.183,1.201 0.23,2.383 -0.876,3.4 0.331,-0.75 0.607,-2.041 0.876,-3.4 z"
         style="fill:#ffffc3;" />
    </g>
    <g
       transform="matrix(1.127531,0.423412,-0.423412,1.127531,-152.17738,-238.44626)"
       id="g337">
      <path
         id="use333"
         d="m 274.515,152.937 -0.262,1.211 0.411,-1.185 c 2.124,-1.332 2.316,-3.408 1.408,-5.906 -0.901,0.377 -2.231,4.362 -1.557,5.88 z"
         style="fill:#ffff00;stroke:#949400;stroke-width:0.265;" />
      <path
         id="use335"
         d="m 275.996,148.459 c 0.183,1.201 0.23,2.383 -0.876,3.4 0.331,-0.75 0.607,-2.041 0.876,-3.4 z"
         style="fill:#ffffc3;" />
    </g>
    <g
       transform="matrix(1.07607,0.540995,-0.540995,1.07607,-119.66802,-260.67333)"
       id="g343">
      <path
         id="use339"
         d="m 274.515,152.937 -0.262,1.211 0.411,-1.185 c 2.124,-1.332 2.316,-3.408 1.408,-5.906 -0.901,0.377 -2.231,4.362 -1.557,5.88 z"
         style="fill:#ffff00;stroke:#949400;stroke-width:0.265;" />
      <path
         id="use341"
         d="m 275.996,148.459 c 0.183,1.201 0.23,2.383 -0.876,3.4 0.331,-0.75 0.607,-2.041 0.876,-3.4 z"
         style="fill:#ffffc3;" />
    </g>
    <g
       transform="matrix(1.010361,0.655571,-0.655571,1.010361,-84.08723,-280.15333)"
       id="g349">
      <path
         id="use345"
         d="m 274.515,152.937 -0.262,1.211 0.411,-1.185 c 2.124,-1.332 2.316,-3.408 1.408,-5.906 -0.901,0.377 -2.231,4.362 -1.557,5.88 z"
         style="fill:#ffff00;stroke:#949400;stroke-width:0.265;" />
      <path
         id="use347"
         d="m 275.996,148.459 c 0.183,1.201 0.23,2.383 -0.876,3.4 0.331,-0.75 0.607,-2.041 0.876,-3.4 z"
         style="fill:#ffffc3;" />
    </g>
    <g
       transform="matrix(1.010361,0.655571,-0.655571,1.010361,-84.40266,-277.25768)"
       id="g355">
      <path
         id="use351"
         d="m 274.515,152.937 -0.262,1.211 0.411,-1.185 c 2.124,-1.332 2.316,-3.408 1.408,-5.906 -0.901,0.377 -2.231,4.362 -1.557,5.88 z"
         style="fill:#ffff00;stroke:#949400;stroke-width:0.265;" />
      <path
         id="use353"
         d="m 275.996,148.459 c 0.183,1.201 0.23,2.383 -0.876,3.4 0.331,-0.75 0.607,-2.041 0.876,-3.4 z"
         style="fill:#ffffc3;" />
    </g>
    <g
       transform="matrix(1.048305,0.725926,-0.725926,1.048305,-84.27855,-299.97922)"
       id="g361">
      <path
         id="use357"
         d="m 274.515,152.937 -0.262,1.211 0.411,-1.185 c 2.124,-1.332 2.316,-3.408 1.408,-5.906 -0.901,0.377 -2.231,4.362 -1.557,5.88 z"
         style="fill:#ffff00;stroke:#949400;stroke-width:0.265;" />
      <path
         id="use359"
         d="m 275.996,148.459 c 0.183,1.201 0.23,2.383 -0.876,3.4 0.331,-0.75 0.607,-2.041 0.876,-3.4 z"
         style="fill:#ffffc3;" />
    </g>
    <g
       transform="matrix(1.036215,0.743082,-0.743082,1.036215,-78.91391,-300.42625)"
       id="g367">
      <path
         id="use363"
         d="m 274.515,152.937 -0.262,1.211 0.411,-1.185 c 2.124,-1.332 2.316,-3.408 1.408,-5.906 -0.901,0.377 -2.231,4.362 -1.557,5.88 z"
         style="fill:#ffff00;stroke:#949400;stroke-width:0.265;" />
      <path
         id="use365"
         d="m 275.996,148.459 c 0.183,1.201 0.23,2.383 -0.876,3.4 0.331,-0.75 0.607,-2.041 0.876,-3.4 z"
         style="fill:#ffffc3;" />
    </g>
    <g
       transform="matrix(0.911789,0.78812,-0.78812,0.911789,-38.06949,-291.70891)"
       id="g373">
      <path
         d="m 274.416,153.294 -0.163,0.854 0.312,-0.827 c 2.124,-1.332 2.415,-3.765 1.507,-6.264 -0.901,0.377 -2.33,4.719 -1.656,6.237 z"
         class="B C D"
         id="path369" />
      <path
         id="use371"
         d="m 275.996,148.459 c 0.183,1.201 0.23,2.383 -0.876,3.4 0.331,-0.75 0.607,-2.041 0.876,-3.4 z"
         style="fill:#ffffc3;" />
    </g>
    <g
       transform="matrix(0.816241,0.886704,-0.886704,0.816241,2.03688,-301.58271)"
       id="g379">
      <path
         d="m 274.253,154.148 c 2.145,-2.798 3.298,-4.111 1.819,-7.091 -1.933,2.206 -2.133,4.835 -1.819,7.091 z"
         class="B C D"
         id="path375" />
      <path
         id="use377"
         d="m 275.996,148.459 c 0.183,1.201 0.23,2.383 -0.876,3.4 0.331,-0.75 0.607,-2.041 0.876,-3.4 z"
         style="fill:#ffffc3;" />
    </g>
    <g
       transform="matrix(0.789803,0.947237,-0.947237,0.789803,17.48638,-311.87285)"
       id="g385">
      <path
         d="m 274.253,154.148 c 1.838,-2.009 3.398,-4.455 1.819,-7.091 -1.933,2.206 -2.02,5.05 -1.819,7.091 z"
         class="B C D"
         id="path381" />
      <path
         id="use383"
         d="m 275.996,148.459 c 0.183,1.201 0.23,2.383 -0.876,3.4 0.331,-0.75 0.607,-2.041 0.876,-3.4 z"
         style="fill:#ffffc3;" />
    </g>
    <g
       transform="matrix(0.845429,1.107148,-1.107148,0.845429,24.67663,-361.35585)"
       id="g391">
      <path
         d="m 274.375,154.017 c 1.737,-2.338 2.879,-4.678 1.697,-6.96 -1.933,2.206 -2.053,4.942 -1.697,6.96 z"
         class="B C D"
         id="path387" />
      <path
         id="use389"
         d="m 275.996,148.459 c 0.183,1.201 0.23,2.383 -0.876,3.4 0.331,-0.75 0.607,-2.041 0.876,-3.4 z"
         style="fill:#ffffc3;" />
    </g>
    <g
       transform="matrix(0.697352,1.205914,-1.205913,0.697352,79.07292,-363.76568)"
       id="g397">
      <path
         d="m 274.373,154.011 c 1.607,-2.76 2.588,-4.405 1.699,-6.955 -2.017,2.199 -1.897,4.532 -1.699,6.955 z"
         class="B C D"
         id="path393" />
      <path
         id="use395"
         d="m 275.996,148.459 c 0.183,1.201 0.23,2.383 -0.876,3.4 0.331,-0.75 0.607,-2.041 0.876,-3.4 z"
         style="fill:#ffffc3;" />
    </g>
    <g
       transform="matrix(0.697352,1.205914,-1.205913,0.697352,78.08164,-361.95659)"
       id="g403">
      <path
         d="m 274.253,154.148 c 2.01,-2.308 2.707,-4.541 1.819,-7.091 -2.05,2.943 -1.93,5.633 -1.819,7.091 z"
         class="B C D"
         id="path399" />
      <path
         id="use401"
         d="m 275.996,148.459 c 0.183,1.201 0.23,2.383 -0.876,3.4 0.331,-0.75 0.607,-2.041 0.876,-3.4 z"
         style="fill:#ffffc3;" />
    </g>
    <g
       transform="matrix(0.697352,1.205914,-1.205913,0.697352,76.02473,-359.55273)"
       id="g409">
      <path
         id="use405"
         d="m 274,153.59 c 2.177,-1.41 2.961,-3.984 2.072,-6.534 -1.943,2.21 -1.983,4.314 -2.072,6.534 z"
         style="fill:#ffff00;stroke:#949400;stroke-width:0.265;" />
      <path
         id="use407"
         d="m 275.996,148.459 c 0.183,1.201 0.23,2.383 -0.876,3.4 0.331,-0.75 0.607,-2.041 0.876,-3.4 z"
         style="fill:#ffffc3;" />
    </g>
    <g
       transform="matrix(0.63165,1.241589,-1.241589,0.63165,97.78861,-357.62792)"
       id="g415">
      <path
         id="use411"
         d="m 274,153.59 c 2.177,-1.41 2.961,-3.984 2.072,-6.534 -1.943,2.21 -1.983,4.314 -2.072,6.534 z"
         style="fill:#ffff00;stroke:#949400;stroke-width:0.265;" />
      <path
         id="use413"
         d="m 275.996,148.459 c 0.183,1.201 0.23,2.383 -0.876,3.4 0.331,-0.75 0.607,-2.041 0.876,-3.4 z"
         style="fill:#ffffc3;" />
    </g>
    <g
       transform="matrix(0.594404,1.406942,-1.255224,0.66625,108.13356,-406.41277)"
       id="g421">
      <path
         id="use417"
         d="m 274,153.59 c 2.177,-1.41 2.961,-3.984 2.072,-6.534 -1.943,2.21 -1.983,4.314 -2.072,6.534 z"
         style="fill:#ffff00;stroke:#949400;stroke-width:0.265;" />
      <path
         id="use419"
         d="m 275.996,148.459 c 0.183,1.201 0.23,2.383 -0.876,3.4 0.331,-0.75 0.607,-2.041 0.876,-3.4 z"
         style="fill:#ffffc3;" />
    </g>
    <g
       transform="matrix(0.634887,-1.073374,1.073375,0.634887,-258.31445,223.98498)"
       id="g427">
      <path
         id="use423"
         d="m 274.515,152.937 -0.262,1.211 0.411,-1.185 c 2.124,-1.332 2.316,-3.408 1.408,-5.906 -0.901,0.377 -2.231,4.362 -1.557,5.88 z"
         style="fill:#ffff00;stroke:#949400;stroke-width:0.265;" />
      <path
         id="use425"
         d="m 275.996,148.459 c 0.183,1.201 0.23,2.383 -0.876,3.4 0.331,-0.75 0.607,-2.041 0.876,-3.4 z"
         style="fill:#ffffc3;" />
    </g>
  </g>
  <g
     id="g1867">
    <g
       transform="matrix(0.249912,0.690958,-0.753251,0.215567,130.54459,-172.93055)"
       id="g433">
      <path
         id="use429"
         d="m 217.19,198.876 -0.892,0.719 1.09,0.421 -0.669,0.719 1.066,0.223 -0.57,1.165 h 1.214 l -0.372,1.115 1.041,-0.198 -0.223,1.214 1.041,-0.273 -0.173,1.313 1.041,-0.421 0.074,1.214 0.991,-0.669 0.099,1.437 0.743,-0.843 0.52,1.239 0.52,-0.966 0.57,1.289 0.446,-0.966 0.843,1.165 0.173,-1.115 1.016,0.644 -0.198,-0.991 1.115,0.57 -0.397,-1.066 1.239,0.595 -0.694,-1.09 1.264,0.223 -0.867,-0.843 1.338,-0.099 -1.165,-1.016 1.264,-0.198 -1.239,-0.644 1.289,-0.52 -1.289,-0.694 1.363,-0.719 -1.264,-0.322 0.966,-0.793 -1.313,-0.322 1.066,-1.016 -1.462,-0.248 0.966,-1.016 -1.512,-0.05 0.743,-0.966 h -1.313 l 0.57,-1.264 -1.289,0.273 0.471,-1.14 -1.437,0.496 0.347,-1.239 -1.264,0.545 0.223,-1.09 -0.892,0.719 -0.173,-1.165 -1.016,1.016 -0.173,-1.264 -0.793,1.437 -0.644,-1.041 -0.322,1.388 -1.214,-0.843 -0.099,1.313 -0.942,-0.52 0.248,1.214 -0.991,-0.124 0.446,1.016 -1.19,0.124 0.843,0.942 -1.09,0.273 0.942,0.52 -0.991,0.719 z"
         style="fill:#ffff00;stroke:#949400;stroke-width:0.265;" />
      <path
         id="use431"
         d="m 220.131,194.757 c 0.306,0.772 1.33,0.171 1.473,1.112 0.218,0.47 0.361,1.256 0.94,0.645 0.711,0.275 0.519,1.546 1.029,2.152 0.074,0.394 0.234,0.374 0.531,0.29 0.173,0.609 -0.11,1.351 0.251,1.911 0.396,0.304 1.768,0.379 0.982,1.093 -0.738,0.438 0.947,1.265 -0.046,1.39 0.294,0.35 0.599,0.85 0.317,1.117 0.188,0.402 0.686,1.456 1.157,1.044 -0.336,-0.615 0.482,-0.629 0.609,-0.873 -0.174,-0.419 -0.242,-1.198 0.406,-0.688 0.749,0.532 -0.34,-0.638 -0.093,-1.026 0.476,-0.757 -0.799,-1.041 -0.929,-1.677 0.38,-0.697 0.626,-1.434 0.487,-2.257 -0.395,-0.484 -0.005,-1.515 -0.73,-1.715 -0.672,-0.334 0.025,-1.621 -0.998,-1.506 -0.678,0.122 -0.708,-0.397 -0.835,-0.868 -0.42,-0.061 -1.523,0.262 -1.251,-0.594 -0.374,-0.554 -1.297,0.766 -1.43,-0.238 -0.275,-0.534 -0.397,0.995 -1.091,0.396 -0.359,-0.177 -0.375,-0.244 -0.403,0.089 -0.145,-0.019 -0.352,0.029 -0.375,0.202 z"
         style="fill:#ffff6b;" />
    </g>
    <g
       transform="matrix(0.353976,0.745908,-0.819283,0.322274,116.04993,-201.60934)"
       id="g439">
      <path
         id="use435"
         d="m 217.19,198.876 -0.892,0.719 1.09,0.421 -0.669,0.719 1.066,0.223 -0.57,1.165 h 1.214 l -0.372,1.115 1.041,-0.198 -0.223,1.214 1.041,-0.273 -0.173,1.313 1.041,-0.421 0.074,1.214 0.991,-0.669 0.099,1.437 0.743,-0.843 0.52,1.239 0.52,-0.966 0.57,1.289 0.446,-0.966 0.843,1.165 0.173,-1.115 1.016,0.644 -0.198,-0.991 1.115,0.57 -0.397,-1.066 1.239,0.595 -0.694,-1.09 1.264,0.223 -0.867,-0.843 1.338,-0.099 -1.165,-1.016 1.264,-0.198 -1.239,-0.644 1.289,-0.52 -1.289,-0.694 1.363,-0.719 -1.264,-0.322 0.966,-0.793 -1.313,-0.322 1.066,-1.016 -1.462,-0.248 0.966,-1.016 -1.512,-0.05 0.743,-0.966 h -1.313 l 0.57,-1.264 -1.289,0.273 0.471,-1.14 -1.437,0.496 0.347,-1.239 -1.264,0.545 0.223,-1.09 -0.892,0.719 -0.173,-1.165 -1.016,1.016 -0.173,-1.264 -0.793,1.437 -0.644,-1.041 -0.322,1.388 -1.214,-0.843 -0.099,1.313 -0.942,-0.52 0.248,1.214 -0.991,-0.124 0.446,1.016 -1.19,0.124 0.843,0.942 -1.09,0.273 0.942,0.52 -0.991,0.719 z"
         style="fill:#ffff00;stroke:#949400;stroke-width:0.265;" />
      <path
         id="use437"
         d="m 220.131,194.757 c 0.306,0.772 1.33,0.171 1.473,1.112 0.218,0.47 0.361,1.256 0.94,0.645 0.711,0.275 0.519,1.546 1.029,2.152 0.074,0.394 0.234,0.374 0.531,0.29 0.173,0.609 -0.11,1.351 0.251,1.911 0.396,0.304 1.768,0.379 0.982,1.093 -0.738,0.438 0.947,1.265 -0.046,1.39 0.294,0.35 0.599,0.85 0.317,1.117 0.188,0.402 0.686,1.456 1.157,1.044 -0.336,-0.615 0.482,-0.629 0.609,-0.873 -0.174,-0.419 -0.242,-1.198 0.406,-0.688 0.749,0.532 -0.34,-0.638 -0.093,-1.026 0.476,-0.757 -0.799,-1.041 -0.929,-1.677 0.38,-0.697 0.626,-1.434 0.487,-2.257 -0.395,-0.484 -0.005,-1.515 -0.73,-1.715 -0.672,-0.334 0.025,-1.621 -0.998,-1.506 -0.678,0.122 -0.708,-0.397 -0.835,-0.868 -0.42,-0.061 -1.523,0.262 -1.251,-0.594 -0.374,-0.554 -1.297,0.766 -1.43,-0.238 -0.275,-0.534 -0.397,0.995 -1.091,0.396 -0.359,-0.177 -0.375,-0.244 -0.403,0.089 -0.145,-0.019 -0.352,0.029 -0.375,0.202 z"
         style="fill:#ffff6b;" />
    </g>
    <g
       transform="matrix(0.428299,0.753501,-0.753501,0.428299,83.80934,-219.86453)"
       id="g445">
      <path
         id="use441"
         d="m 217.19,198.876 -0.892,0.719 1.09,0.421 -0.669,0.719 1.066,0.223 -0.57,1.165 h 1.214 l -0.372,1.115 1.041,-0.198 -0.223,1.214 1.041,-0.273 -0.173,1.313 1.041,-0.421 0.074,1.214 0.991,-0.669 0.099,1.437 0.743,-0.843 0.52,1.239 0.52,-0.966 0.57,1.289 0.446,-0.966 0.843,1.165 0.173,-1.115 1.016,0.644 -0.198,-0.991 1.115,0.57 -0.397,-1.066 1.239,0.595 -0.694,-1.09 1.264,0.223 -0.867,-0.843 1.338,-0.099 -1.165,-1.016 1.264,-0.198 -1.239,-0.644 1.289,-0.52 -1.289,-0.694 1.363,-0.719 -1.264,-0.322 0.966,-0.793 -1.313,-0.322 1.066,-1.016 -1.462,-0.248 0.966,-1.016 -1.512,-0.05 0.743,-0.966 h -1.313 l 0.57,-1.264 -1.289,0.273 0.471,-1.14 -1.437,0.496 0.347,-1.239 -1.264,0.545 0.223,-1.09 -0.892,0.719 -0.173,-1.165 -1.016,1.016 -0.173,-1.264 -0.793,1.437 -0.644,-1.041 -0.322,1.388 -1.214,-0.843 -0.099,1.313 -0.942,-0.52 0.248,1.214 -0.991,-0.124 0.446,1.016 -1.19,0.124 0.843,0.942 -1.09,0.273 0.942,0.52 -0.991,0.719 z"
         style="fill:#ffff00;stroke:#949400;stroke-width:0.265;" />
      <path
         id="use443"
         d="m 220.131,194.757 c 0.306,0.772 1.33,0.171 1.473,1.112 0.218,0.47 0.361,1.256 0.94,0.645 0.711,0.275 0.519,1.546 1.029,2.152 0.074,0.394 0.234,0.374 0.531,0.29 0.173,0.609 -0.11,1.351 0.251,1.911 0.396,0.304 1.768,0.379 0.982,1.093 -0.738,0.438 0.947,1.265 -0.046,1.39 0.294,0.35 0.599,0.85 0.317,1.117 0.188,0.402 0.686,1.456 1.157,1.044 -0.336,-0.615 0.482,-0.629 0.609,-0.873 -0.174,-0.419 -0.242,-1.198 0.406,-0.688 0.749,0.532 -0.34,-0.638 -0.093,-1.026 0.476,-0.757 -0.799,-1.041 -0.929,-1.677 0.38,-0.697 0.626,-1.434 0.487,-2.257 -0.395,-0.484 -0.005,-1.515 -0.73,-1.715 -0.672,-0.334 0.025,-1.621 -0.998,-1.506 -0.678,0.122 -0.708,-0.397 -0.835,-0.868 -0.42,-0.061 -1.523,0.262 -1.251,-0.594 -0.374,-0.554 -1.297,0.766 -1.43,-0.238 -0.275,-0.534 -0.397,0.995 -1.091,0.396 -0.359,-0.177 -0.375,-0.244 -0.403,0.089 -0.145,-0.019 -0.352,0.029 -0.375,0.202 z"
         style="fill:#ffff6b;" />
    </g>
    <g
       transform="matrix(0.53067,0.685269,-0.685269,0.53067,43.85376,-218.56024)"
       id="g451">
      <path
         id="use447"
         d="m 217.19,198.876 -0.892,0.719 1.09,0.421 -0.669,0.719 1.066,0.223 -0.57,1.165 h 1.214 l -0.372,1.115 1.041,-0.198 -0.223,1.214 1.041,-0.273 -0.173,1.313 1.041,-0.421 0.074,1.214 0.991,-0.669 0.099,1.437 0.743,-0.843 0.52,1.239 0.52,-0.966 0.57,1.289 0.446,-0.966 0.843,1.165 0.173,-1.115 1.016,0.644 -0.198,-0.991 1.115,0.57 -0.397,-1.066 1.239,0.595 -0.694,-1.09 1.264,0.223 -0.867,-0.843 1.338,-0.099 -1.165,-1.016 1.264,-0.198 -1.239,-0.644 1.289,-0.52 -1.289,-0.694 1.363,-0.719 -1.264,-0.322 0.966,-0.793 -1.313,-0.322 1.066,-1.016 -1.462,-0.248 0.966,-1.016 -1.512,-0.05 0.743,-0.966 h -1.313 l 0.57,-1.264 -1.289,0.273 0.471,-1.14 -1.437,0.496 0.347,-1.239 -1.264,0.545 0.223,-1.09 -0.892,0.719 -0.173,-1.165 -1.016,1.016 -0.173,-1.264 -0.793,1.437 -0.644,-1.041 -0.322,1.388 -1.214,-0.843 -0.099,1.313 -0.942,-0.52 0.248,1.214 -0.991,-0.124 0.446,1.016 -1.19,0.124 0.843,0.942 -1.09,0.273 0.942,0.52 -0.991,0.719 z"
         style="fill:#ffff00;stroke:#949400;stroke-width:0.265;" />
      <path
         id="use449"
         d="m 220.131,194.757 c 0.306,0.772 1.33,0.171 1.473,1.112 0.218,0.47 0.361,1.256 0.94,0.645 0.711,0.275 0.519,1.546 1.029,2.152 0.074,0.394 0.234,0.374 0.531,0.29 0.173,0.609 -0.11,1.351 0.251,1.911 0.396,0.304 1.768,0.379 0.982,1.093 -0.738,0.438 0.947,1.265 -0.046,1.39 0.294,0.35 0.599,0.85 0.317,1.117 0.188,0.402 0.686,1.456 1.157,1.044 -0.336,-0.615 0.482,-0.629 0.609,-0.873 -0.174,-0.419 -0.242,-1.198 0.406,-0.688 0.749,0.532 -0.34,-0.638 -0.093,-1.026 0.476,-0.757 -0.799,-1.041 -0.929,-1.677 0.38,-0.697 0.626,-1.434 0.487,-2.257 -0.395,-0.484 -0.005,-1.515 -0.73,-1.715 -0.672,-0.334 0.025,-1.621 -0.998,-1.506 -0.678,0.122 -0.708,-0.397 -0.835,-0.868 -0.42,-0.061 -1.523,0.262 -1.251,-0.594 -0.374,-0.554 -1.297,0.766 -1.43,-0.238 -0.275,-0.534 -0.397,0.995 -1.091,0.396 -0.359,-0.177 -0.375,-0.244 -0.403,0.089 -0.145,-0.019 -0.352,0.029 -0.375,0.202 z"
         style="fill:#ffff6b;" />
    </g>
    <g
       transform="matrix(0.794685,0.345947,-0.345947,0.794685,-84.49855,-187.20253)"
       id="g457">
      <path
         id="use453"
         d="m 217.19,198.876 -0.892,0.719 1.09,0.421 -0.669,0.719 1.066,0.223 -0.57,1.165 h 1.214 l -0.372,1.115 1.041,-0.198 -0.223,1.214 1.041,-0.273 -0.173,1.313 1.041,-0.421 0.074,1.214 0.991,-0.669 0.099,1.437 0.743,-0.843 0.52,1.239 0.52,-0.966 0.57,1.289 0.446,-0.966 0.843,1.165 0.173,-1.115 1.016,0.644 -0.198,-0.991 1.115,0.57 -0.397,-1.066 1.239,0.595 -0.694,-1.09 1.264,0.223 -0.867,-0.843 1.338,-0.099 -1.165,-1.016 1.264,-0.198 -1.239,-0.644 1.289,-0.52 -1.289,-0.694 1.363,-0.719 -1.264,-0.322 0.966,-0.793 -1.313,-0.322 1.066,-1.016 -1.462,-0.248 0.966,-1.016 -1.512,-0.05 0.743,-0.966 h -1.313 l 0.57,-1.264 -1.289,0.273 0.471,-1.14 -1.437,0.496 0.347,-1.239 -1.264,0.545 0.223,-1.09 -0.892,0.719 -0.173,-1.165 -1.016,1.016 -0.173,-1.264 -0.793,1.437 -0.644,-1.041 -0.322,1.388 -1.214,-0.843 -0.099,1.313 -0.942,-0.52 0.248,1.214 -0.991,-0.124 0.446,1.016 -1.19,0.124 0.843,0.942 -1.09,0.273 0.942,0.52 -0.991,0.719 z"
         style="fill:#ffff00;stroke:#949400;stroke-width:0.265;" />
      <path
         id="use455"
         d="m 220.131,194.757 c 0.306,0.772 1.33,0.171 1.473,1.112 0.218,0.47 0.361,1.256 0.94,0.645 0.711,0.275 0.519,1.546 1.029,2.152 0.074,0.394 0.234,0.374 0.531,0.29 0.173,0.609 -0.11,1.351 0.251,1.911 0.396,0.304 1.768,0.379 0.982,1.093 -0.738,0.438 0.947,1.265 -0.046,1.39 0.294,0.35 0.599,0.85 0.317,1.117 0.188,0.402 0.686,1.456 1.157,1.044 -0.336,-0.615 0.482,-0.629 0.609,-0.873 -0.174,-0.419 -0.242,-1.198 0.406,-0.688 0.749,0.532 -0.34,-0.638 -0.093,-1.026 0.476,-0.757 -0.799,-1.041 -0.929,-1.677 0.38,-0.697 0.626,-1.434 0.487,-2.257 -0.395,-0.484 -0.005,-1.515 -0.73,-1.715 -0.672,-0.334 0.025,-1.621 -0.998,-1.506 -0.678,0.122 -0.708,-0.397 -0.835,-0.868 -0.42,-0.061 -1.523,0.262 -1.251,-0.594 -0.374,-0.554 -1.297,0.766 -1.43,-0.238 -0.275,-0.534 -0.397,0.995 -1.091,0.396 -0.359,-0.177 -0.375,-0.244 -0.403,0.089 -0.145,-0.019 -0.352,0.029 -0.375,0.202 z"
         style="fill:#ffff6b;" />
    </g>
    <g
       transform="matrix(0.93387,0.273918,-0.273918,0.93387,-128.77897,-189.8038)"
       id="g463">
      <path
         id="use459"
         d="m 217.19,198.876 -0.892,0.719 1.09,0.421 -0.669,0.719 1.066,0.223 -0.57,1.165 h 1.214 l -0.372,1.115 1.041,-0.198 -0.223,1.214 1.041,-0.273 -0.173,1.313 1.041,-0.421 0.074,1.214 0.991,-0.669 0.099,1.437 0.743,-0.843 0.52,1.239 0.52,-0.966 0.57,1.289 0.446,-0.966 0.843,1.165 0.173,-1.115 1.016,0.644 -0.198,-0.991 1.115,0.57 -0.397,-1.066 1.239,0.595 -0.694,-1.09 1.264,0.223 -0.867,-0.843 1.338,-0.099 -1.165,-1.016 1.264,-0.198 -1.239,-0.644 1.289,-0.52 -1.289,-0.694 1.363,-0.719 -1.264,-0.322 0.966,-0.793 -1.313,-0.322 1.066,-1.016 -1.462,-0.248 0.966,-1.016 -1.512,-0.05 0.743,-0.966 h -1.313 l 0.57,-1.264 -1.289,0.273 0.471,-1.14 -1.437,0.496 0.347,-1.239 -1.264,0.545 0.223,-1.09 -0.892,0.719 -0.173,-1.165 -1.016,1.016 -0.173,-1.264 -0.793,1.437 -0.644,-1.041 -0.322,1.388 -1.214,-0.843 -0.099,1.313 -0.942,-0.52 0.248,1.214 -0.991,-0.124 0.446,1.016 -1.19,0.124 0.843,0.942 -1.09,0.273 0.942,0.52 -0.991,0.719 z"
         style="fill:#ffff00;stroke:#949400;stroke-width:0.265;" />
      <path
         id="use461"
         d="m 220.131,194.757 c 0.306,0.772 1.33,0.171 1.473,1.112 0.218,0.47 0.361,1.256 0.94,0.645 0.711,0.275 0.519,1.546 1.029,2.152 0.074,0.394 0.234,0.374 0.531,0.29 0.173,0.609 -0.11,1.351 0.251,1.911 0.396,0.304 1.768,0.379 0.982,1.093 -0.738,0.438 0.947,1.265 -0.046,1.39 0.294,0.35 0.599,0.85 0.317,1.117 0.188,0.402 0.686,1.456 1.157,1.044 -0.336,-0.615 0.482,-0.629 0.609,-0.873 -0.174,-0.419 -0.242,-1.198 0.406,-0.688 0.749,0.532 -0.34,-0.638 -0.093,-1.026 0.476,-0.757 -0.799,-1.041 -0.929,-1.677 0.38,-0.697 0.626,-1.434 0.487,-2.257 -0.395,-0.484 -0.005,-1.515 -0.73,-1.715 -0.672,-0.334 0.025,-1.621 -0.998,-1.506 -0.678,0.122 -0.708,-0.397 -0.835,-0.868 -0.42,-0.061 -1.523,0.262 -1.251,-0.594 -0.374,-0.554 -1.297,0.766 -1.43,-0.238 -0.275,-0.534 -0.397,0.995 -1.091,0.396 -0.359,-0.177 -0.375,-0.244 -0.403,0.089 -0.145,-0.019 -0.352,0.029 -0.375,0.202 z"
         style="fill:#ffff6b;" />
    </g>
    <g
       transform="matrix(0.969738,0.082166,-0.082166,0.969738,-173.78527,-146.20996)"
       id="g469">
      <path
         id="use465"
         d="m 217.19,198.876 -0.892,0.719 1.09,0.421 -0.669,0.719 1.066,0.223 -0.57,1.165 h 1.214 l -0.372,1.115 1.041,-0.198 -0.223,1.214 1.041,-0.273 -0.173,1.313 1.041,-0.421 0.074,1.214 0.991,-0.669 0.099,1.437 0.743,-0.843 0.52,1.239 0.52,-0.966 0.57,1.289 0.446,-0.966 0.843,1.165 0.173,-1.115 1.016,0.644 -0.198,-0.991 1.115,0.57 -0.397,-1.066 1.239,0.595 -0.694,-1.09 1.264,0.223 -0.867,-0.843 1.338,-0.099 -1.165,-1.016 1.264,-0.198 -1.239,-0.644 1.289,-0.52 -1.289,-0.694 1.363,-0.719 -1.264,-0.322 0.966,-0.793 -1.313,-0.322 1.066,-1.016 -1.462,-0.248 0.966,-1.016 -1.512,-0.05 0.743,-0.966 h -1.313 l 0.57,-1.264 -1.289,0.273 0.471,-1.14 -1.437,0.496 0.347,-1.239 -1.264,0.545 0.223,-1.09 -0.892,0.719 -0.173,-1.165 -1.016,1.016 -0.173,-1.264 -0.793,1.437 -0.644,-1.041 -0.322,1.388 -1.214,-0.843 -0.099,1.313 -0.942,-0.52 0.248,1.214 -0.991,-0.124 0.446,1.016 -1.19,0.124 0.843,0.942 -1.09,0.273 0.942,0.52 -0.991,0.719 z"
         style="fill:#ffff00;stroke:#949400;stroke-width:0.265;" />
      <path
         id="use467"
         d="m 220.131,194.757 c 0.306,0.772 1.33,0.171 1.473,1.112 0.218,0.47 0.361,1.256 0.94,0.645 0.711,0.275 0.519,1.546 1.029,2.152 0.074,0.394 0.234,0.374 0.531,0.29 0.173,0.609 -0.11,1.351 0.251,1.911 0.396,0.304 1.768,0.379 0.982,1.093 -0.738,0.438 0.947,1.265 -0.046,1.39 0.294,0.35 0.599,0.85 0.317,1.117 0.188,0.402 0.686,1.456 1.157,1.044 -0.336,-0.615 0.482,-0.629 0.609,-0.873 -0.174,-0.419 -0.242,-1.198 0.406,-0.688 0.749,0.532 -0.34,-0.638 -0.093,-1.026 0.476,-0.757 -0.799,-1.041 -0.929,-1.677 0.38,-0.697 0.626,-1.434 0.487,-2.257 -0.395,-0.484 -0.005,-1.515 -0.73,-1.715 -0.672,-0.334 0.025,-1.621 -0.998,-1.506 -0.678,0.122 -0.708,-0.397 -0.835,-0.868 -0.42,-0.061 -1.523,0.262 -1.251,-0.594 -0.374,-0.554 -1.297,0.766 -1.43,-0.238 -0.275,-0.534 -0.397,0.995 -1.091,0.396 -0.359,-0.177 -0.375,-0.244 -0.403,0.089 -0.145,-0.019 -0.352,0.029 -0.375,0.202 z"
         style="fill:#ffff6b;" />
    </g>
    <g
       id="g1841">
      <path
         id="use471"
         d="m 24.557996,73.02 -0.892,0.719 1.09,0.421 -0.669,0.719 1.066,0.223 -0.57,1.165 h 1.214 l -0.372,1.115 1.041,-0.198 -0.223,1.214 1.041,-0.273 -0.173,1.313 1.041,-0.421 0.074,1.214 0.991,-0.669 0.099,1.437 0.743,-0.843 0.52,1.239 0.52,-0.966 0.57,1.289 0.446,-0.966 0.843,1.165 0.173,-1.115 1.016,0.644 -0.198,-0.991 1.115,0.57 -0.397,-1.066 1.239,0.595 -0.694,-1.09 1.264,0.223 -0.867,-0.843 1.338,-0.099 -1.165,-1.016 1.264,-0.198 -1.239,-0.644 1.289,-0.52 -1.289,-0.694 1.363,-0.719 -1.264,-0.322 0.966,-0.793 -1.313,-0.322 1.066,-1.016 -1.462,-0.248 0.966,-1.016 -1.512,-0.05 0.743,-0.966 h -1.313 l 0.57,-1.264 -1.289,0.273 0.471,-1.14 -1.437,0.496 0.347,-1.239 -1.264,0.545 0.223,-1.09 -0.892,0.719 -0.173,-1.165 -1.016,1.016 -0.173,-1.264 -0.793,1.437 -0.644,-1.041 -0.322,1.388 -1.214,-0.843 -0.099,1.313 -0.942,-0.52 0.248,1.214 -0.991,-0.124 0.446,1.016 -1.19,0.124 0.843,0.942 -1.09,0.273 0.942,0.52 -0.991,0.719 z"
         style="fill:#ffff00;stroke:#949400;stroke-width:0.265;" />
      <path
         id="use473"
         d="m 27.498996,68.901 c 0.306,0.772 1.33,0.171 1.473,1.112 0.218,0.47 0.361,1.256 0.94,0.645 0.711,0.275 0.519,1.546 1.029,2.152 0.074,0.394 0.234,0.374 0.531,0.29 0.173,0.609 -0.11,1.351 0.251,1.911 0.396,0.304 1.768,0.379 0.982,1.093 -0.738,0.438 0.947,1.265 -0.046,1.39 0.294,0.35 0.599,0.85 0.317,1.117 0.188,0.402 0.686,1.456 1.157,1.044 -0.336,-0.615 0.482,-0.629 0.609,-0.873 -0.174,-0.419 -0.242,-1.198 0.406,-0.688 0.749,0.532 -0.34,-0.638 -0.093,-1.026 0.476,-0.757 -0.799,-1.041 -0.929,-1.677 0.38,-0.697 0.626,-1.434 0.487,-2.257 -0.395,-0.484 -0.005,-1.515 -0.73,-1.715 -0.672,-0.334 0.025,-1.621 -0.998,-1.506 -0.678,0.122 -0.708,-0.397 -0.835,-0.868 -0.42,-0.061 -1.523,0.262 -1.251,-0.594 -0.374,-0.554 -1.297,0.766 -1.43,-0.238 -0.275,-0.534 -0.397,0.995 -1.091,0.396 -0.359,-0.177 -0.375,-0.244 -0.403,0.089 -0.145,-0.019 -0.352,0.029 -0.375,0.202 z"
         style="fill:#ffff6b;" />
    </g>
  </g>
  <g
     transform="matrix(1.522668,0,0,1.522668,-225.35895,-191.57193)"
     stroke="#967e00"
     stroke-width="0.262"
     stroke-linejoin="round"
     class="I"
     id="g495">
    <path
       id="use475"
       d="m 178.038,181.829 h 0.359 c 0.292,0 0.527,0.248 0.527,0.557 v 3.787 c 0,0.308 -0.235,0.557 -0.527,0.557 h -0.359 c -0.292,0 -0.527,-0.248 -0.527,-0.557 v -3.787 c 0,-0.308 0.235,-0.557 0.527,-0.557 z"
       style="opacity:0.999;fill:url(#G);fill-opacity:1;" />
    <path
       id="use477"
       d="m 179.833,181.829 h 0.359 c 0.292,0 0.527,0.248 0.527,0.557 v 3.787 c 0,0.308 -0.235,0.557 -0.527,0.557 h -0.359 c -0.292,0 -0.527,-0.248 -0.527,-0.557 v -3.787 c 0,-0.308 0.235,-0.557 0.527,-0.557 z"
       style="opacity:0.999;fill:url(#linearGradient1538);" />
    <path
       id="use479"
       d="m 181.628,181.829 h 0.359 c 0.292,0 0.527,0.248 0.527,0.557 v 3.787 c 0,0.308 -0.235,0.557 -0.527,0.557 h -0.359 c -0.292,0 -0.527,-0.248 -0.527,-0.557 v -3.787 c 0,-0.308 0.235,-0.557 0.527,-0.557 z"
       style="opacity:0.999;fill:url(#linearGradient1542);" />
    <path
       id="use481"
       d="m 185.218,181.829 h 0.359 c 0.292,0 0.527,0.248 0.527,0.557 v 3.787 c 0,0.308 -0.235,0.557 -0.527,0.557 h -0.359 c -0.292,0 -0.527,-0.248 -0.527,-0.557 v -3.787 c 0,-0.308 0.235,-0.557 0.527,-0.557 z"
       style="opacity:0.999;fill:url(#linearGradient1546);" />
    <path
       id="use483"
       d="m 183.423,181.829 h 0.359 c 0.292,0 0.527,0.248 0.527,0.557 v 3.787 c 0,0.308 -0.235,0.557 -0.527,0.557 h -0.359 c -0.292,0 -0.527,-0.248 -0.527,-0.557 v -3.787 c 0,-0.308 0.235,-0.557 0.527,-0.557 z"
       style="opacity:0.999;fill:url(#linearGradient1550);" />
    <path
       id="use485"
       d="m 187.013,181.829 h 0.359 c 0.292,0 0.527,0.248 0.527,0.557 v 3.787 c 0,0.308 -0.235,0.557 -0.527,0.557 h -0.359 c -0.292,0 -0.527,-0.248 -0.527,-0.557 v -3.787 c 0,-0.308 0.235,-0.557 0.527,-0.557 z"
       style="opacity:0.999;fill:url(#linearGradient1554);" />
    <path
       id="use487"
       d="m 188.808,181.829 h 0.359 c 0.292,0 0.527,0.248 0.527,0.557 v 3.787 c 0,0.308 -0.235,0.557 -0.527,0.557 h -0.359 c -0.292,0 -0.527,-0.248 -0.527,-0.557 v -3.787 c 0,-0.308 0.235,-0.557 0.527,-0.557 z"
       style="opacity:0.999;fill:url(#linearGradient1558);" />
    <path
       id="use489"
       d="m 192.398,181.829 h 0.359 c 0.292,0 0.527,0.248 0.527,0.557 v 3.787 c 0,0.308 -0.235,0.557 -0.527,0.557 h -0.359 c -0.292,0 -0.527,-0.248 -0.527,-0.557 v -3.787 c 0,-0.308 0.235,-0.557 0.527,-0.557 z"
       style="opacity:0.999;fill:url(#I);fill-opacity:1;" />
    <path
       id="use491"
       d="m 190.603,181.829 h 0.359 c 0.292,0 0.527,0.248 0.527,0.557 v 3.787 c 0,0.308 -0.235,0.557 -0.527,0.557 h -0.359 c -0.292,0 -0.527,-0.248 -0.527,-0.557 v -3.787 c 0,-0.308 0.235,-0.557 0.527,-0.557 z"
       style="opacity:0.999;fill:url(#H);fill-opacity:1;" />
    <path
       id="use493"
       d="m 194.193,181.829 h 0.359 c 0.292,0 0.527,0.248 0.527,0.557 v 3.787 c 0,0.308 -0.235,0.557 -0.527,0.557 h -0.359 c -0.292,0 -0.527,-0.248 -0.527,-0.557 v -3.787 c 0,-0.308 0.235,-0.557 0.527,-0.557 z"
       style="opacity:0.999;fill:url(#J);fill-opacity:1;" />
  </g>
</svg>
